<?xml version="1.0" encoding="UTF-8"?>
<svg width="128px" height="110px" viewBox="0 0 128 110" version="1.1" xmlns="http://www.w3.org/2000/svg" xmlns:xlink="http://www.w3.org/1999/xlink">
    <!-- Generator: Sketch 43.2 (39069) - http://www.bohemiancoding.com/sketch -->
    <title>pictures</title>
    <desc>Created with Sketch.</desc>
    <defs></defs>
    <g id="Page-1" stroke="none" stroke-width="1" fill="none" fill-rule="evenodd">
        <g id="50-Valentine's-Day-Element-Icons" transform="translate(-555.000000, -2024.000000)" fill-rule="nonzero">
            <g id="pictures" transform="translate(555.000000, 2024.000000)">
                <polygon id="Shape" fill="#36C9A3" points="80.01025 80.01625 126.04 80.01625 126.04 1.96575 47.98975 1.96575 47.98975 29.98375 80.01025 29.98375"></polygon>
                <polygon id="Shape" fill="#FAEDD6" points="79.9405 58.00525 118.09325 58.00525 118.09325 9.9225 55.89925 9.9225 55.89925 30.04425 79.9405 30.04425"></polygon>
                <path d="M80.01025,37.989 L88.0155,45.99425 L100.87675,33.133 C104.274,29.73575 104.274,24.228 100.87675,20.831 C97.4795,17.43375 91.97175,17.43375 88.57475,20.831 L88.0155,21.39025 L87.45625,20.831 C84.059,17.43375 78.55125,17.43375 75.15425,20.831 C72.67925,23.306 72.0075,26.901 73.13875,29.984" id="Shape" fill="#FA004B"></path>
                <rect id="Rectangle-path" fill="#FAEDD6" x="1.96" y="29.9835" width="78.05075" height="78.05075"></rect>
                <rect id="Rectangle-path" fill="#FFFFFF" x="9.907" y="37.88325" width="62.194" height="48.08275"></rect>
                <path d="M47.33075,51.99775 C47.114,50.116 46.284,48.29125 44.8405,46.84775 C41.44325,43.4505 35.9355,43.4505 32.5385,46.84775 L31.97925,47.407 L31.42,46.84775 C28.02275,43.4505 22.515,43.4505 19.118,46.84775 C15.721,50.245 15.72075,55.75275 19.118,59.14975 L31.97925,72.011 L37.983,66.00725" id="Shape" fill="#FA004B"></path>
                <path d="M62.85225,52.8515 C59.455,49.45425 53.94725,49.45425 50.55025,52.8515 L49.991,53.41075 L49.43175,52.8515 C46.0345,49.45425 40.52675,49.45425 37.12975,52.8515 C33.7325,56.24875 33.7325,61.7565 37.12975,65.1535 L49.991,78.01475 L62.85225,65.1535 C66.24925,61.7565 66.24925,56.24875 62.85225,52.8515 Z" id="Shape" fill="#36C9A3"></path>
                <polygon id="Shape" fill="#232323" points="128 81.976 84.013 81.976 84.013 78.05625 124.08025 78.05625 124.08025 3.92525 49.9495 3.92525 49.9495 25.98125 46.02975 25.98125 46.02975 0.0055 128 0.0055"></polygon>
                <path d="M73.93025,88.057 L8.078,88.057 L8.078,36.0545 L73.93025,36.0545 L73.93025,88.057 Z M11.99775,84.13725 L70.0105,84.13725 L70.0105,39.97425 L11.99775,39.97425 L11.99775,84.13725 L11.99775,84.13725 Z" id="Shape" fill="#232323"></path>
                <path d="M31.97925,74.78275 L37.983,68.779 L49.99075,80.78675 L64.23775,66.53975 C68.3935,62.38375 68.3935,55.62175 64.23775,51.4655 C60.3475,47.57525 54.1725,47.32675 49.99075,50.72025 C49.6405,50.43625 49.27525,50.17975 48.89975,49.94675 C48.395,48.264 47.478,46.7135 46.22625,45.4615 C42.336,41.5715 36.16175,41.3225 31.97925,44.71625 C27.797,41.32275 21.62275,41.57125 17.73225,45.46175 C13.5765,49.6175 13.5765,56.37975 17.73225,60.53575 L31.97925,74.78275 Z M48.04575,54.2375 L49.9905,56.18225 L51.93575,54.2375 C54.5635,51.60975 58.839,51.60975 61.466,54.2375 C64.0935,56.865 64.0935,61.14025 61.466,63.76775 L49.9905,75.24325 L38.51525,63.76775 C37.24225,62.49525 36.5415,60.8025 36.5415,59.00275 C36.5415,57.2025 37.2425,55.51025 38.51525,54.2375 C39.829,52.9235 41.55475,52.26675 43.2805,52.26675 C45.0065,52.26675 46.73225,52.9235 48.04575,54.2375 Z M20.50375,48.2335 C23.13075,45.60575 27.40625,45.60575 30.03375,48.233 L31.979,50.17925 L33.924,48.2335 C36.55175,45.606 40.82725,45.606 43.45425,48.23325 C43.4935,48.2725 43.528,48.31475 43.566,48.35475 C40.742,48.27975 37.89375,49.31525 35.7435,51.4655 C33.73025,53.47875 32.6215,56.1555 32.6215,59.0025 C32.6215,61.597 33.54475,64.048 35.2315,65.9865 L31.97875,69.2395 L20.50325,57.764 C17.87625,55.13625 17.87625,50.861 20.50375,48.2335 Z" id="Shape" fill="#232323"></path>
                <path d="M102.26275,19.44475 C98.37225,15.55425 92.19775,15.306 88.01575,18.6995 C83.83325,15.30575 77.65925,15.5545 73.76875,19.44475 C71.49025,21.7235 70.40475,24.89625 70.706,28.02375 L0,28.02375 L0,109.99425 L81.97025,109.99425 L81.97025,42.7205 L88.0155,48.76575 L102.2625,34.51875 C106.4185,30.36275 106.4185,23.60075 102.26275,19.44475 Z M78.0505,106.07475 L3.91975,106.07475 L3.91975,31.94375 L78.0505,31.94375 L78.0505,106.07475 Z M99.49125,31.747 L88.01575,43.2225 L81.9705,37.177 L81.9705,28.024 L74.65075,28.024 C74.3265,25.92475 75.00675,23.7505 76.54025,22.21675 C79.16775,19.58875 83.443,19.58925 86.07075,22.21675 L88.01575,24.1615 L89.9605,22.21675 C92.588,19.58925 96.86325,19.58925 99.491,22.21675 C102.1185,24.84425 102.1185,29.11975 99.49125,31.747 Z" id="Shape" fill="#232323"></path>
                <rect id="Rectangle-path" fill="#FA004B" x="57.98925" y="91.97625" width="3.91975" height="3.91975"></rect>
                <rect id="Rectangle-path" fill="#FA004B" x="63.9995" y="91.97625" width="3.91975" height="3.91975"></rect>
                <rect id="Rectangle-path" fill="#FA004B" x="70.01" y="91.97625" width="3.91975" height="3.91975"></rect>
                <rect id="Rectangle-path" fill="#36C9A3" x="8.078" y="91.97625" width="23.78" height="3.91975"></rect>
                <polygon id="Shape" fill="#232323" points="119.92225 59.8345 84.12175 59.8345 84.12175 55.91475 116.0025 55.91475 116.0025 12.01325 57.98975 12.01325 57.98975 25.863 54.07 25.863 54.07 8.0935 119.92225 8.0935"></polygon>
                <rect id="Rectangle-path" fill="#FFFFFF" x="116.002" y="64.015" width="3.91975" height="3.91975"></rect>
                <rect id="Rectangle-path" fill="#FFFFFF" x="109.99175" y="64.015" width="3.91975" height="3.91975"></rect>
                <rect id="Rectangle-path" fill="#FFFFFF" x="103.9815" y="64.015" width="3.91975" height="3.91975"></rect>
                <rect id="Rectangle-path" fill="#FA004B" x="84.12125" y="64.015" width="3.91975" height="3.91975"></rect>
            </g>
        </g>
    </g>
</svg>