<?xml version="1.0" encoding="UTF-8"?>
<svg width="128px" height="128px" viewBox="0 0 128 128" version="1.1" xmlns="http://www.w3.org/2000/svg" xmlns:xlink="http://www.w3.org/1999/xlink">
    <!-- Generator: Sketch 43.2 (39069) - http://www.bohemiancoding.com/sketch -->
    <title>cupid-1</title>
    <desc>Created with Sketch.</desc>
    <defs></defs>
    <g id="Page-1" stroke="none" stroke-width="1" fill="none" fill-rule="evenodd">
        <g id="50-Valentine's-Day-Element-Icons" transform="translate(-871.000000, -504.000000)" fill-rule="nonzero">
            <g id="cupid-1" transform="translate(871.000000, 504.000000)">
                <rect id="Rectangle-path" fill="#232323" transform="translate(123.318682, 4.683905) rotate(-135.000000) translate(-123.318682, -4.683905) " x="121.351326" y="0.417195431" width="3.93471227" height="8.53341816"></rect>
                <polygon id="Shape" fill="#FAEDD6" points="17.8245 110.17525 17.8245 123.507 30.15375 112.12875 30.15375 97.846 15.871 97.846 4.49275 110.17525"></polygon>
                <path d="M98.27925,33.87 C89.36625,24.957 74.91525,24.957 66.00225,33.87 L63.5815,36.29075 L61.96775,34.677 C53.05475,25.764 38.60375,25.76375 29.69075,34.677 C20.77775,43.59 20.77775,58.041 29.69075,66.954 C29.759,67.02225 63.58175,100.845 63.58175,100.845 L98.2795,66.14725 C107.192,57.234 107.192,42.78325 98.27925,33.87 Z" id="Shape" fill="#FA004B"></path>
                <rect id="Rectangle-path" fill="#36C9A3" transform="translate(37.840144, 90.165874) rotate(-135.000000) translate(-37.840144, -90.165874) " x="35.872913" y="87.3212766" width="3.93446227" height="5.68919544"></rect>
                <polygon id="Shape" fill="#232323" points="127.99975 12.06675 124.065 12.06675 124.065 3.93475 115.933 3.93475 115.933 0 127.99975 0"></polygon>
                <polygon id="Shape" fill="#FAEDD6" points="127.99975 12.06675 124.065 12.06675 124.065 3.93475 115.933 3.93475 115.933 0 127.99975 0"></polygon>
                <path d="M98.96925,31.81275 L113.65,17.13225 L110.8675,14.35 L95.85875,29.35875 C86.23425,22.961 73.0905,23.9995 64.61075,32.479 L63.5815,33.50825 L63.35875,33.2855 C53.6925,23.6195 37.965,23.61975 28.2995,33.2855 C23.617,37.968 21.0385,44.19325 21.0385,50.81525 C21.0385,57.43725 23.617,63.66275 28.2995,68.345 L42.586,82.63125 L40.468,84.74925 L43.2505,87.5315 L45.36825,85.41375 L63.5815,103.627 L64.97275,102.236 C66.38625,100.8225 99.5875,67.621 99.67025,67.53825 C104.35275,62.856 106.93125,56.6305 106.93125,50.0085 C106.93125,43.3865 104.35275,37.16125 99.67025,32.47875 C99.44125,32.24975 99.2055,32.031 98.96925,31.81275 Z M96.887,64.75675 C96.77525,64.8685 70.0385,91.60525 63.58125,98.0625 L48.1505,82.63175 L60.9675,69.81475 L62.59325,71.4405 L65.37575,68.65825 L59.34125,62.624 L56.55875,65.40625 L58.185,67.0325 L45.368,79.8495 L31.08175,65.56325 C27.14275,61.62375 24.973,56.3865 24.973,50.8155 C24.973,45.2445 27.14275,40.00725 31.08175,36.068 C35.1475,32.00225 40.488,29.96925 45.829,29.96925 C51.17,29.96925 56.5105,32.00225 60.57625,36.068 L63.5815,39.07325 L67.39325,35.2615 C75.525,27.1295 88.7565,27.12975 96.888,35.2615 C100.82725,39.20075 102.99675,44.438 102.99675,50.00875 C102.9965,55.5795 100.827,60.81675 96.887,64.75675 Z" id="Shape" fill="#FFFFFF"></path>
                <path d="M32.42225,92.795 L28.94525,96.272 L15.0095,96.272 L0,112.536 L12.68125,112.536 L10.29675,114.9205 L13.07925,117.70275 L15.46375,115.31825 L15.46375,127.99975 L31.72775,112.99025 L31.72775,99.0545 L35.20475,95.5775 L32.42225,92.795 Z M8.9855,108.60125 L16.7325,100.207 L25.01025,100.207 L16.616,108.60125 L8.9855,108.60125 Z M27.79275,111.26725 L19.3985,119.01425 L19.3985,111.38375 L27.79275,102.9895 L27.79275,111.26725 Z" id="Shape" fill="#FFFFFF"></path>
                <path d="M96.1235,48.005 L92.18875,48.005 C92.18875,43.5455 88.65175,39.83425 84.1925,39.83425 L84.1925,35.8995 C90.75,35.89925 96.1235,41.1845 96.1235,48.005 Z" id="Shape" fill="#FFFFFF"></path>
                <rect id="Rectangle-path" fill="#36C9A3" transform="translate(7.659295, 120.331006) rotate(-135.000000) translate(-7.659295, -120.331006) " x="5.69193925" y="117.486533" width="3.93471227" height="5.68894544"></rect>
                <rect id="Rectangle-path" fill="#36C9A3" transform="translate(116.276496, 11.721436) rotate(-135.000000) translate(-116.276496, -11.721436) " x="114.30914" y="8.87696374" width="3.93471227" height="5.68894544"></rect>
            </g>
        </g>
    </g>
</svg>