<?xml version="1.0" encoding="UTF-8"?>
<svg width="128px" height="128px" viewBox="0 0 128 128" version="1.1" xmlns="http://www.w3.org/2000/svg" xmlns:xlink="http://www.w3.org/1999/xlink">
    <!-- Generator: Sketch 43.2 (39069) - http://www.bohemiancoding.com/sketch -->
    <title>cat</title>
    <desc>Created with Sketch.</desc>
    <defs></defs>
    <g id="Page-1" stroke="none" stroke-width="1" fill="none" fill-rule="evenodd">
        <g id="50-Valentine's-Day-Element-Icons" transform="translate(-214.000000, -202.000000)" fill-rule="nonzero">
            <g id="cat" transform="translate(214.000000, 202.000000)">
                <path d="M73.945349,3.71775 C71.5914039,1.373 67.7752471,1.373 65.421302,3.71775 L64.000502,5.133 L62.579702,3.71775 C60.2257569,1.373 56.4096,1.373 54.0556549,3.71775 C51.7017098,6.0625 51.7017098,9.86375 54.0556549,12.2085 L64.000502,22.1145 L73.945349,12.2085 C76.2990431,9.864 76.2990431,6.0625 73.945349,3.71775 Z" id="Shape" fill="#FA004B"></path>
                <polyline id="Shape" fill="#FAEDD6" points="48.0017569 76.07725 48.0017569 31.979 57.9729569 40.02525 70.0275451 40.02525 79.9989961 31.979 79.9989961 76.07725"></polyline>
                <path d="M88.1101804,76.00775 L112.22011,76.00775 L112.22011,98.479 C112.22011,113.70075 99.8319686,126.0405 84.5505255,126.0405 L43.4499765,126.0405 C28.1685333,126.0405 15.7803922,113.70075 15.7803922,98.479 L15.7803922,76.00775 L39.8903216,76.00775" id="Shape" fill="#36C9A3"></path>
                <rect id="Rectangle-path" fill="#FFFFFF" x="15.7793882" y="76.00725" width="96.4399686" height="8.00525"></rect>
                <path d="M92.1286275,126.04075 L35.8718745,126.04075 C31.4335373,126.04075 27.8352314,122.45675 27.8352314,118.0355 L27.8352314,118.0355 L100.16502,118.0355 L100.16502,118.0355 C100.16502,122.4565 96.5669647,126.04075 92.1286275,126.04075 Z" id="Shape" fill="#FA004B"></path>
                <path d="M51.9454118,75.0415 L51.9454118,82.01175 C51.9454118,85.3275 49.2468706,88.01575 45.9178667,88.01575 L45.9178667,88.01575 C42.5891137,88.01575 39.8903216,85.32775 39.8903216,82.01175 L39.8903216,75.0415 C39.8903216,73.3645 41.254902,72.00525 42.9384784,72.00525 L48.8972549,72.00525 C50.5808314,72.00525 51.9454118,73.3645 51.9454118,75.0415 Z" id="Shape" fill="#FAEDD6"></path>
                <path d="M88.1101804,75.0415 L88.1101804,82.01175 C88.1101804,85.3275 85.4116392,88.01575 82.0826353,88.01575 L82.0826353,88.01575 C78.7538824,88.01575 76.0550902,85.32775 76.0550902,82.01175 L76.0550902,75.0415 C76.0550902,73.3645 77.4196706,72.00525 79.1032471,72.00525 L85.0620235,72.00525 C86.745349,72.00525 88.1101804,73.3645 88.1101804,75.0415 Z" id="Shape" fill="#FAEDD6"></path>
                <rect id="Rectangle-path" fill="#232323" x="56.1325176" y="50.21425" width="3.93411765" height="3.91875"></rect>
                <rect id="Rectangle-path" fill="#232323" x="68.1968941" y="50.21425" width="3.93411765" height="3.91875"></rect>
                <polygon id="Shape" fill="#232323" points="68.1966431 58.05125 60.0663843 58.05125 60.0663843 61.97 61.9023059 61.97 61.9023059 64.06 65.8364235 64.06 65.8364235 61.97 68.1966431 61.97"></polygon>
                <rect id="Rectangle-path" fill="#232323" x="66.098949" y="66.41175" width="3.93411765" height="3.91875"></rect>
                <path d="M64.000502,24.88575 L52.6644706,13.59425 C51.1545725,12.09 50.3230745,10.0905 50.3230745,7.963 C50.3230745,5.836 51.1545725,3.83625 52.6644706,2.332 C54.1743686,0.8285 56.1819608,0 58.3178039,0 C60.4531451,0 62.4609882,0.8285 63.9708863,2.33275 L64.000502,2.36225 L64.0301176,2.3325 C65.5400157,0.8285 67.5476078,0 69.682949,0 C71.8185412,0 73.8263843,0.8285 75.3362824,2.33275 C76.8461804,3.83675 77.6776784,5.83625 77.6776784,7.9635 C77.6776784,10.09075 76.8461804,12.0905 75.3362824,13.59475 L64.000502,24.88575 Z M58.3178039,3.91875 C57.2330667,3.91875 56.2135843,4.33925 55.4465882,5.10325 C53.8631529,6.6805 53.8631529,9.246 55.4465882,10.82325 L64.000251,19.34375 L72.5539137,10.82325 C74.137349,9.24625 74.137349,6.68075 72.5539137,5.1035 L72.5539137,5.10325 C71.7869176,4.33925 70.7674353,3.91875 69.682949,3.91875 C68.5984627,3.91875 67.5789804,4.33925 66.8122353,5.10325 L64.000502,7.904 L61.1887686,5.1035 C60.4217725,4.33925 59.4020392,3.91875 58.3178039,3.91875 Z" id="Shape" fill="#232323"></path>
                <path d="M124.174306,33.7375 C121.820361,31.39275 118.004204,31.39275 115.650259,33.7375 L114.229459,35.15275 L112.808659,33.7375 C110.454714,31.39275 106.638557,31.39275 104.284612,33.7375 C101.930667,36.08225 101.930667,39.8835 104.284612,42.22825 L114.229459,52.13425 L124.174306,42.22825 C126.528,39.8835 126.528,36.08225 124.174306,33.7375 Z" id="Shape" fill="#FA004B"></path>
                <path d="M114.229208,54.90525 L102.893176,43.614 C99.776251,40.50875 99.776251,35.45675 102.893176,32.35225 C106.010855,29.24725 111.082165,29.24725 114.199341,32.35225 L114.228706,32.38175 L114.258573,32.35225 C117.375749,29.2475 122.447812,29.24775 125.564486,32.35225 C128.681412,35.45725 128.681412,40.50925 125.564486,43.61375 L114.229208,54.90525 Z M108.54651,33.94025 C107.506698,33.94025 106.466635,34.33475 105.675545,35.12325 C104.092361,36.7 104.092361,39.26575 105.675545,40.84325 L114.229208,49.3635 L122.783122,40.843 C124.366306,39.266 124.366306,36.70025 122.783122,35.12325 C121.200188,33.546 118.623624,33.546 117.04069,35.12325 L114.228957,37.9235 L111.417475,35.12325 C110.626384,34.33475 109.586322,33.94025 108.54651,33.94025 Z" id="Shape" fill="#232323"></path>
                <path d="M23.7158902,33.7375 C21.3619451,31.39275 17.5457882,31.39275 15.1918431,33.7375 L13.7710431,35.15275 L12.3502431,33.7375 C9.99629804,31.39275 6.18014118,31.39275 3.82619608,33.7375 C1.47225098,36.08225 1.47225098,39.8835 3.82619608,42.22825 L13.7710431,52.13425 L23.7158902,42.22825 C26.0698353,39.8835 26.0698353,36.08225 23.7158902,33.7375 Z" id="Shape" fill="#FA004B"></path>
                <path d="M13.7712941,54.90525 L2.43501176,43.614 C-0.681913725,40.50875 -0.681913725,35.45675 2.43501176,32.35225 C5.5526902,29.24725 10.624,29.24725 13.7411765,32.35225 L13.7707922,32.38175 L13.8001569,32.35225 C16.9178353,29.24725 21.9891451,29.24725 25.1063216,32.35225 C28.2232471,35.45725 28.2232471,40.50925 25.1063216,43.61375 L13.7712941,54.90525 Z M8.08859608,33.9405 C7.04878431,33.9405 6.00872157,34.33475 5.21738039,35.12325 C3.63419608,36.7 3.63419608,39.26575 5.21738039,40.84325 L13.7712941,49.3635 L22.3249569,40.843 C23.9081412,39.266 23.9081412,36.70025 22.3249569,35.12325 C20.7420235,33.546 18.1657098,33.546 16.5825255,35.12325 L13.7710431,37.9235 L10.9595608,35.12325 C10.1682196,34.33475 9.12840784,33.9405 8.08859608,33.9405 Z" id="Shape" fill="#232323"></path>
                <rect id="Rectangle-path" fill="#232323" x="41.9696941" y="116.04875" width="44.3238902" height="3.91875"></rect>
                <path d="M89.9769725,74.0485 C89.7290039,72.8295 89.0315294,71.77425 88.0682667,71.05225 L88.0682667,68.00275 C88.0682667,65.77275 89.8896314,63.9585 92.1283765,63.9585 L96.1465725,63.9585 C100.554792,63.9585 104.141051,60.386 104.141051,55.99525 C104.141051,51.6045 100.554541,48.03225 96.1465725,48.03225 L92.1283765,48.03225 L92.1283765,51.951 L96.1465725,51.951 C98.3855686,51.951 100.207184,53.76525 100.207184,55.99525 C100.207184,58.2255 98.3858196,60.04 96.1465725,60.04 L92.1283765,60.04 C87.7201569,60.04 84.134149,63.61225 84.134149,68.003 L84.134149,70.04625 L81.8349176,70.04625 L81.8349176,27.793 L69.3150118,38.1965 L58.6714353,38.1965 L45.9035608,27.86225 L45.9035608,70.04575 L42.9382275,70.04575 C40.5142588,70.04575 38.4868392,71.768 38.0235294,74.04825 L13.8132078,74.04825 L13.8132078,98.47875 C13.8132078,114.757 27.1078902,128 43.4497255,128 L84.5502745,128 C100.89211,128 114.187043,114.757 114.187043,98.479 L114.187043,74.0485 L89.9769725,74.0485 L89.9769725,74.0485 Z M78.0222745,75.0415 C78.0222745,74.448 78.5071686,73.96475 79.1029961,73.96475 L85.0620235,73.96475 C85.657851,73.96475 86.1427451,74.448 86.1427451,75.0415 L86.1429961,82.01175 C86.1429961,84.242 84.3216314,86.0565 82.0823843,86.0565 C79.8436392,86.0565 78.0222745,84.24225 78.0222745,82.01175 L78.0222745,75.0415 L78.0222745,75.0415 L78.0222745,75.0415 Z M57.2744784,42.11525 L70.7405804,42.11525 L77.9008,36.16525 L77.9008,70.19725 C75.968,70.67375 74.4774275,72.26625 74.1579294,74.24875 L53.8428235,74.24875 C53.5090196,72.17725 51.8969725,70.52825 49.8376784,70.13725 L49.8376784,36.09575 L57.2744784,42.11525 Z M74.0969412,82.34725 L53.9038118,82.34725 C53.9085804,82.236 53.9123451,82.12425 53.9123451,82.01175 L53.9123451,78.16725 L74.0884078,78.16725 L74.0884078,82.01175 C74.0881569,82.12425 74.0921725,82.236 74.0969412,82.34725 Z M41.8575059,75.0415 C41.8575059,74.448 42.3424,73.96475 42.9382275,73.96475 L48.8972549,73.96475 C49.4930824,73.96475 49.9779765,74.448 49.9779765,75.0415 L49.9779765,82.01175 C49.9779765,84.242 48.1566118,86.0565 45.9178667,86.0565 C43.6791216,86.0565 41.8577569,84.24225 41.8577569,82.01175 L41.8577569,75.0415 L41.8575059,75.0415 L41.8575059,75.0415 Z M103.228235,116.04825 L90.227702,116.04825 L90.227702,119.967 L98.509051,119.967 C94.4868392,122.56825 89.6933647,124.0815 84.5510275,124.0815 L43.4504784,124.0815 C38.3081412,124.0815 33.5144157,122.56825 29.4924549,119.967 L38.0360784,119.967 L38.0360784,116.04825 L24.7722667,116.04825 C20.4197647,111.46 17.7473255,105.275 17.7473255,98.479 L17.7473255,86.266 L23.872502,86.266 L23.872502,82.34725 L17.7473255,82.34725 L17.7473255,77.96725 L37.9233882,77.96725 L37.9233882,82.0115 C37.9233882,82.124 37.9274039,82.23575 37.9319216,82.347 L27.8066196,82.347 L27.8066196,86.26575 L39.1647373,86.26575 C40.5835294,88.4925 43.0795294,89.975 45.9176157,89.975 C48.7559529,89.975 51.251702,88.49275 52.6704941,86.26575 L75.3295059,86.26575 C76.748298,88.4925 79.244298,89.975 82.0823843,89.975 C84.9204706,89.975 87.4164706,88.49275 88.8355137,86.26575 L102.291576,86.26575 L102.291576,82.347 L90.0683294,82.347 C90.073098,82.23575 90.0768627,82.124 90.0768627,82.0115 L90.0768627,77.96725 L110.252675,77.96725 L110.252675,82.34725 L106.225694,82.34725 L106.225694,86.266 L110.252675,86.266 L110.252675,98.479 C110.253176,105.275 107.580235,111.46 103.228235,116.04825 Z" id="Shape" fill="#232323"></path>
            </g>
        </g>
    </g>
</svg>