<?xml version="1.0" encoding="UTF-8"?>
<svg width="118px" height="128px" viewBox="0 0 118 128" version="1.1" xmlns="http://www.w3.org/2000/svg" xmlns:xlink="http://www.w3.org/1999/xlink">
    <!-- Generator: Sketch 43.2 (39069) - http://www.bohemiancoding.com/sketch -->
    <title>padlock-1</title>
    <desc>Created with Sketch.</desc>
    <defs></defs>
    <g id="Page-1" stroke="none" stroke-width="1" fill="none" fill-rule="evenodd">
        <g id="50-Valentine's-Day-Element-Icons" transform="translate(-1463.000000, -2015.000000)" fill-rule="nonzero">
            <g id="padlock-1" transform="translate(1463.000000, 2015.000000)">
                <path d="M110.417621,50.68125 C103.018268,43.31325 91.0219362,43.31325 83.6223319,50.68125 L76.9236979,57.3515 L70.2250638,50.68125 C62.8257106,43.31325 50.8293787,43.31325 43.4297745,50.68125 C36.0304213,58.04925 36.0304213,69.995 43.4297745,77.363 L76.9236979,110.715 L110.417621,77.363 C117.816974,69.99475 117.816974,58.049 110.417621,50.68125 Z" id="Shape" fill="#FA004B"></path>
                <ellipse id="Oval" fill="#FAEDD6" cx="76.9249532" cy="83.941" rx="4.37880426" ry="4.36025"></ellipse>
                <polygon id="Shape" fill="#36C9A3" points="24.5693574 122.263 24.5693574 118.0905 36.6161532 118.0905 36.6161532 106.095 26.6644851 106.095 26.6644851 100.097 32.6880085 100.097 32.6880085 92.013 24.5693574 92.013 24.5693574 87.8405 18.5460851 87.8405 18.5460851 122.263"></polygon>
                <rect id="Rectangle-path" fill="#FAEDD6" transform="translate(18.615409, 35.992049) rotate(-135.000000) translate(-18.615409, -35.992049) " x="14.5942841" y="31.9879628" width="8.04225053" height="8.0081732"></rect>
                <path d="M32.8321191,4.3015 C29.6913106,1.174 24.598983,1.174 21.4581745,4.3015 L18.6146255,7.133 L15.7710766,4.3015 C12.6302681,1.174 7.53794043,1.174 4.39713191,4.3015 C1.2563234,7.429 1.2563234,12.49975 4.39713191,15.62725 L18.6146255,29.7845 L32.8321191,15.62725 C35.9729277,12.49975 35.9729277,7.429 32.8321191,4.3015 Z" id="Shape" fill="#FA004B"></path>
                <rect id="Rectangle-path" fill="#36C9A3" x="16.712817" y="50.02725" width="3.92839574" height="3.91175"></rect>
                <rect id="Rectangle-path" fill="#232323" x="16.712817" y="56.025" width="3.92839574" height="66.237"></rect>
                <path d="M34.2212553,2.9185 L34.2212553,2.9185 C30.3194723,-0.9665 23.9708213,-0.966 20.0692894,2.9185 L18.6148766,4.367 L17.1602128,2.9185 C15.2699532,1.0365 12.7570553,0 10.0842298,0 C7.41115319,0 4.89850638,1.03625 3.00824681,2.91825 C1.11848936,4.8005 0.0775787234,7.30275 0.0775787234,9.96425 C0.0775787234,12.626 1.11848936,15.128 3.00824681,17.01025 L16.1105149,30.05675 L10.1500085,35.992 L16.712817,42.527 L16.712817,47.94175 L20.6412128,47.94175 L20.6412128,42.40325 L27.0794936,35.992 L21.1192383,30.05675 L34.2215064,17.01025 C38.1225362,13.12525 38.1225362,6.80375 34.2212553,2.9185 Z M18.6146255,38.889 L15.7052979,35.99225 L18.6146255,33.09525 L21.5237021,35.99225 L18.6146255,38.889 Z M31.4434851,14.24425 L18.6151277,27.0185 L5.78626809,14.24425 C3.41622553,11.88425 3.41622553,8.04425 5.78626809,5.68425 C6.9710383,4.50425 8.52763404,3.91425 10.0839787,3.91425 C11.6405745,3.91425 13.1971702,4.504 14.3821915,5.68425 L18.6146255,9.89875 L22.8470596,5.68425 C25.2168511,3.32475 29.0734426,3.3245 31.443234,5.68425 C33.8132766,8.0445 33.8132766,11.88425 31.4434851,14.24425 Z" id="Shape" fill="#232323"></path>
                <rect id="Rectangle-path" fill="#FA004B" x="16.712817" y="124.08725" width="3.92839574" height="3.91175"></rect>
                <polygon id="Shape" fill="#232323" points="28.4977532 104.2695 28.4977532 101.9225 34.7828851 101.9225 34.7828851 90.1875 26.6644851 90.1875 26.6644851 87.8405 22.7363404 87.8405 22.7363404 94.09925 30.8547404 94.09925 30.8547404 98.01075 24.5693574 98.01075 24.5693574 108.181 34.7828851 108.181 34.7828851 110.0065 30.8547404 110.0065 30.8547404 113.91825 34.7828851 113.91825 34.7828851 116.00425 22.7363404 116.00425 22.7363404 122.263 26.6644851 122.263 26.6644851 119.916 38.7112809 119.916 38.7112809 104.2695"></polygon>
                <path d="M79.0414213,77.98875 L79.0414213,69.847 L75.1132766,69.847 L75.1132766,77.88875 C72.495183,78.66675 70.5805702,81.08475 70.5805702,83.94125 C70.5805702,87.424 73.4258766,90.25725 76.9236979,90.25725 C80.4215191,90.25725 83.2668255,87.424 83.2668255,83.94125 C83.2665745,81.19825 81.5005915,78.85875 79.0414213,77.98875 Z M76.9236979,86.34575 C75.5923064,86.34575 74.508966,85.26725 74.508966,83.9415 C74.508966,82.61575 75.5923064,81.53725 76.9236979,81.53725 C78.2550894,81.53725 79.3384298,82.61575 79.3384298,83.9415 C79.3384298,85.26725 78.2550894,86.34575 76.9236979,86.34575 Z" id="Shape" fill="#232323"></path>
                <path d="M111.806757,49.298 C108.755328,46.2595 104.987613,44.359 101.039885,43.59475 L101.039885,38.0325 L97.1114894,38.0325 L97.1114894,43.2115 C91.7261702,43.18825 86.3333191,45.21575 82.2331957,49.29825 L76.9234468,54.58575 L71.6136979,49.29825 C67.5251234,45.22725 62.1513532,43.19875 56.7810979,43.2105 L56.7810979,38.0325 L52.8527021,38.0325 L52.8527021,43.58625 C48.8886553,44.3445 45.103617,46.24825 42.0401362,49.29825 C33.8870894,57.417 33.8870894,70.62725 42.0401362,78.74575 L76.9231957,113.48075 L111.806255,78.74575 C119.959804,70.627 119.959804,57.417 111.806757,49.298 Z M109.028736,75.97975 L76.9236979,107.949 L44.8184085,75.97975 C38.1968511,69.386 38.1968511,58.6575 44.8184085,52.064 C48.1296894,48.76675 52.4776128,47.119 56.8270426,47.119 C61.1754681,47.119 65.5254,48.7675 68.8354255,52.064 L76.9231957,60.11725 L85.010966,52.064 C91.6320213,45.4705 102.406928,45.47025 109.028485,52.064 C115.650043,58.65775 115.650545,69.38625 109.028736,75.97975 Z" id="Shape" fill="#232323"></path>
                <path d="M101.004987,35.99225 L97.0765915,35.99225 L97.0765915,23.97925 C97.0765915,12.914 88.036034,3.9115 76.9234468,3.9115 C65.8108596,3.9115 56.7705532,12.91375 56.7705532,23.97925 L56.7705532,35.992 L52.8421574,35.992 L52.8421574,23.97925 C52.8424085,10.757 63.6449319,0 76.9236979,0 C90.2024638,0 101.004987,10.757 101.004987,23.97925 L101.004987,35.99225 Z" id="Shape" fill="#36C9A3"></path>
            </g>
        </g>
    </g>
</svg>