<?xml version="1.0" encoding="UTF-8"?>
<svg width="73px" height="128px" viewBox="0 0 73 128" version="1.1" xmlns="http://www.w3.org/2000/svg" xmlns:xlink="http://www.w3.org/1999/xlink">
    <!-- Generator: Sketch 43.2 (39069) - http://www.bohemiancoding.com/sketch -->
    <title>padlock</title>
    <desc>Created with Sketch.</desc>
    <defs></defs>
    <g id="Page-1" stroke="none" stroke-width="1" fill="none" fill-rule="evenodd">
        <g id="50-Valentine's-Day-Element-Icons" transform="translate(-1196.000000, -2015.000000)" fill-rule="nonzero">
            <g id="padlock" transform="translate(1196.000000, 2015.000000)">
                <path d="M58.3448724,45.986 L54.4003552,45.986 L54.4003552,21.9655 C54.4003552,17.131 52.5355828,12.596 49.1496414,9.19625 C45.7596724,5.79225 41.2268759,3.9175 36.3867241,3.9175 C31.5465724,3.9175 27.0137759,5.79225 23.6238069,9.19575 C20.2378655,12.59575 18.3730931,17.1305 18.3730931,21.965 L18.3730931,45.98575 L14.4285759,45.98575 L14.4285759,21.9655 C14.4285759,16.0925 16.6983724,10.57925 20.8196,6.4415 C24.9561828,2.28725 30.4848,0 36.3867241,0 C42.2886483,0 47.8175172,2.28725 51.9541,6.441 C56.0753276,10.579 58.3451241,16.0925 58.3451241,21.965 L58.3451241,45.986 L58.3448724,45.986 Z" id="Shape" fill="#232323"></path>
                <rect id="Rectangle-path" fill="#36C9A3" x="0.192568966" y="51.976" width="72.5202138" height="6.002"></rect>
                <rect id="Rectangle-path" fill="#FA004B" x="2.20686552" y="83.98525" width="68.4916207" height="42.01475"></rect>
                <rect id="Rectangle-path" fill="#FFFFFF" x="2.20686552" y="57.97775" width="68.4916207" height="26.0075"></rect>
                <path d="M52.2649793,76.91225 C48.3312862,73.00575 41.9541069,73.00575 38.0206655,76.91225 L36.5752655,78.34775 L35.1298655,76.91225 C31.1964241,73.00575 24.8192448,73.00575 20.8855517,76.91225 C16.9521103,80.8185 16.9521103,87.15225 20.8855517,91.059 L36.4531793,107.9935 L52.2649793,91.059 C56.1986724,87.15225 56.1986724,80.8185 52.2649793,76.91225 Z" id="Shape" fill="#FAEDD6"></path>
                <rect id="Rectangle-path" fill="#232323" x="34.4132069" y="83.85475" width="3.94451724" height="12.014"></rect>
                <path d="M0.193324138,55.9765 L0.193324138,128 L72.7135379,128 L72.7135379,55.9765 L0.193324138,55.9765 Z M68.6846931,59.9775 L68.6846931,81.76675 L57.0223138,81.76675 C56.5802862,79.4055 55.4362,77.2325 53.6894862,75.4975 L53.6897379,75.4975 C51.4066,73.23025 48.3713103,71.9815 45.1432,71.9815 C41.9145862,71.9815 38.8795483,73.23025 36.5966621,75.4975 L36.575769,75.5185 L36.5546241,75.4975 C34.2717379,73.23025 31.2364483,71.9815 28.0080862,71.9815 C24.7797241,71.9815 21.7446862,73.23025 19.4615483,75.4975 C17.6748103,77.272 16.5674759,79.46825 16.135769,81.76675 L4.22242069,81.76675 L4.22242069,59.9775 L68.6846931,59.9775 Z M53.2008897,83.9855 C53.2008897,86.12325 52.3626483,88.13275 50.8404724,89.64425 L36.4647586,105.03875 L22.3732414,89.71 L22.3100586,89.6445 C19.1682897,86.52425 19.1682897,81.44725 22.3100586,78.327 C23.8319828,76.81525 25.8550897,75.983 28.0075828,75.983 C30.1600759,75.983 32.1834345,76.81525 33.7053586,78.327 L36.5755172,81.17725 L39.4451724,78.32675 C40.9670966,76.815 42.9902034,75.98275 45.1426966,75.98275 C47.2951897,75.98275 49.3185483,76.815 50.8402207,78.32675 L50.8404724,78.32675 C52.3626483,79.83825 53.2008897,81.848 53.2008897,83.9855 Z M4.22216897,123.9985 L4.22216897,85.68425 L16.0476655,85.68425 C16.4005828,88.1555 17.5270483,90.53725 19.4275655,92.43975 L36.4416,110.948 L53.7174276,92.4455 C55.5756552,90.58825 56.7471793,88.23325 57.1086552,85.68425 L68.6844414,85.68425 L68.6844414,123.9985 L4.22216897,123.9985 Z" id="Shape" fill="#232323"></path>
                <rect id="Rectangle-path" fill="#FA004B" x="52.2954379" y="44.1565" width="12.0968552" height="3.9175"></rect>
                <rect id="Rectangle-path" fill="#FA004B" x="8.11583793" y="44.1565" width="12.0968552" height="3.9175"></rect>
                <rect id="Rectangle-path" fill="#232323" x="0.226803448" y="49.90225" width="72.5808793" height="3.9175"></rect>
                <rect id="Rectangle-path" fill="#36C9A3" x="34.4132069" y="115.979" width="3.94451724" height="3.9175"></rect>
                <rect id="Rectangle-path" fill="#FFFFFF" x="40.1988345" y="115.979" width="4.20756897" height="3.9175"></rect>
                <rect id="Rectangle-path" fill="#FFFFFF" x="28.1019793" y="115.979" width="4.20756897" height="3.9175"></rect>
            </g>
        </g>
    </g>
</svg>