<?xml version="1.0" encoding="UTF-8"?>
<svg width="128px" height="119px" viewBox="0 0 128 119" version="1.1" xmlns="http://www.w3.org/2000/svg" xmlns:xlink="http://www.w3.org/1999/xlink">
    <!-- Generator: Sketch 43.2 (39069) - http://www.bohemiancoding.com/sketch -->
    <title>home</title>
    <desc>Created with Sketch.</desc>
    <defs></defs>
    <g id="Page-1" stroke="none" stroke-width="1" fill="none" fill-rule="evenodd">
        <g id="50-Valentine's-Day-Element-Icons" transform="translate(-214.000000, -1415.000000)" fill-rule="nonzero">
            <g id="home" transform="translate(214.000000, 1415.000000)">
                <rect id="Rectangle-path" fill="#FAEDD6" x="79.8365" y="36.88675" width="3.9265" height="9.94675"></rect>
                <polygon id="Shape" fill="#36C9A3" points="99.99175 60.871 64 34.88075 28.00825 60.871 28.00825 64.89525 37.955 64.89525 37.955 60.871 64 42.87775 90.045 60.871 90.045 64.89525 99.99175 64.89525"></polygon>
                <polyline id="Shape" fill="#FFFFFF" points="38.00925 116.85025 38.00925 61.89925 63.9995 42.87775 89.98975 61.89925 89.98975 116.85025"></polyline>
                <path d="M73.1275,60.43475 C71.111,58.41825 67.8415,58.41825 65.82525,60.43475 L63.99975,62.26025 L62.17425,60.43475 C60.15775,58.41825 56.88825,58.41825 54.872,60.43475 C52.8555,62.45125 52.8555,65.72075 54.872,67.737 L56.6975,69.5625 L63.99975,76.86475 L71.302,69.5625 L73.1275,67.737 C75.144,65.72075 75.144,62.45125 73.1275,60.43475 Z" id="Shape" fill="#FA004B"></path>
                <rect id="Rectangle-path" fill="#FA004B" x="38.01" y="90.859" width="51.98" height="25.99"></rect>
                <polyline id="Shape" fill="#FAEDD6" points="56.01625 116.7235 56.01625 84.789 71.98375 84.789 71.98375 116.7235"></polyline>
                <rect id="Rectangle-path" fill="#232323" x="0" y="114.891" width="128" height="3.9265"></rect>
                <polygon id="Shape" fill="#36C9A3" points="125.906 102.85025 124.0735 102.85025 124.0735 98.924 120.14725 98.924 120.14725 102.85025 115.959 102.85025 115.959 98.924 112.03275 98.924 112.03275 102.85025 108.10625 102.85025 108.10625 98.924 104.18 98.924 104.18 102.85025 99.73 102.85025 99.73 98.924 95.80375 98.924 95.80375 102.85025 93.97125 102.85025 93.97125 106.77675 95.80375 106.77675 95.80375 112.79725 99.73 112.79725 99.73 106.77675 104.18 106.77675 104.18 112.79725 108.10625 112.79725 108.10625 106.77675 112.03275 106.77675 112.03275 112.79725 115.959 112.79725 115.959 106.77675 120.14725 106.77675 120.14725 112.79725 124.0735 112.79725 124.0735 106.77675 125.906 106.77675"></polygon>
                <polygon id="Shape" fill="#36C9A3" points="34.02875 102.85025 32.19625 102.85025 32.19625 98.924 28.27 98.924 28.27 102.85025 23.82 102.85025 23.82 98.924 19.89375 98.924 19.89375 102.85025 15.96725 102.85025 15.96725 98.924 12.041 98.924 12.041 102.85025 7.85275 102.85025 7.85275 98.924 3.9265 98.924 3.9265 102.85025 2.094 102.85025 2.094 106.77675 3.9265 106.77675 3.9265 112.79725 7.85275 112.79725 7.85275 106.77675 12.041 106.77675 12.041 112.79725 15.96725 112.79725 15.96725 106.77675 19.89375 106.77675 19.89375 112.79725 23.82 112.79725 23.82 106.77675 28.27 106.77675 28.27 112.79725 32.19625 112.79725 32.19625 106.77675 34.02875 106.77675"></polygon>
                <rect id="Rectangle-path" fill="#232323" x="59.94275" y="100.756" width="3.9265" height="3.9265"></rect>
                <path d="M63.99975,40.49 L36.04625,59.8425 L36.04625,112.85175 L39.97275,112.85175 L39.97275,92.90375 L53.9225,92.90375 L53.9225,112.7975 L57.849,112.7975 L57.849,86.88325 L70.15175,86.88325 L70.15175,112.7975 L74.07825,112.7975 L74.07825,92.90375 L88.027,92.90375 L88.027,112.85175 L91.9535,112.85175 L91.9535,59.84225 L63.99975,40.49 Z M74.07775,88.977 L74.07775,82.9565 L53.92225,82.9565 L53.92225,88.977 L39.9725,88.977 L39.9725,61.89975 L63.9995,45.2655 L88.0265,61.89975 L88.0265,88.977 L74.07775,88.977 L74.07775,88.977 Z" id="Shape" fill="#232323"></path>
                <polygon id="Shape" fill="#232323" points="101.82425 66.7275 93.97125 66.7275 93.97125 62.80125 97.89775 62.80125 97.89775 61.87275 64 37.3055 30.10225 61.87275 30.10225 62.80125 34.02875 62.80125 34.02875 66.7275 26.17575 66.7275 26.17575 59.86925 64 32.456 101.82425 59.86925"></polygon>
                <path d="M63.99975,79.64125 L53.4835,69.12525 C52.13725,67.77875 51.396,65.9895 51.396,64.0855 C51.396,62.18175 52.13725,60.39225 53.4835,59.046 C54.82975,57.69975 56.61925,56.9585 58.523,56.9585 C60.42675,56.9585 62.2165,57.69975 63.5625,59.04625 L64,59.48375 L64.43725,59.04625 C67.216,56.26775 71.73725,56.2675 74.51625,59.046 L74.516,59.046 L74.51625,59.046 C75.86225,60.39225 76.60375,62.1815 76.60375,64.0855 C76.60375,65.98925 75.8625,67.779 74.51625,69.12525 L63.99975,79.64125 Z M58.52275,60.8855 C57.66775,60.8855 56.86425,61.2185 56.2595,61.823 C55.655,62.4275 55.32225,63.231 55.32225,64.086 C55.32225,64.941 55.65525,65.74475 56.25975,66.34925 L63.9995,74.08875 L71.73925,66.349 C72.344,65.74425 72.67675,64.94075 72.67675,64.08575 C72.67675,63.23075 72.34375,62.42725 71.7395,61.82275 L71.73925,61.82275 C70.49175,60.5745 68.461,60.575 67.2135,61.82275 L63.99975,65.03625 L60.786,61.82275 C60.18125,61.2185 59.3775,60.8855 58.52275,60.8855 Z" id="Shape" fill="#232323"></path>
                <rect id="Rectangle-path" fill="#232323" x="78.004" y="35.0545" width="8.1145" height="3.9265"></rect>
                <path d="M79.0025,27.23 C79.2065,26.21175 80.19725,25.55125 81.2155,25.75525 L81.26975,25.766 C81.47375,24.74775 82.4645,24.08725 83.48275,24.29125 C84.501,24.49525 85.1615,25.486 84.9575,26.50425 L84.21925,30.192 L80.47725,29.443 C79.459,29.239 78.7985,28.24825 79.0025,27.23 Z" id="Shape" fill="#FA004B"></path>
                <path d="M88.59425,14.025 C89.633,14.0225 90.045,14.86175 90.045,15.9005 L90.045,15.95575 C91.87725,15.95325 92.3625,16.7925 92.36525,17.83125 C92.36775,18.87 91.74575,19.71375 90.70725,19.71675 L87.05525,19.72675 L86.88225,15.9105 C86.879,14.872 87.556,14.02775 88.59425,14.025 Z" id="Shape" fill="#FA004B"></path>
                <path d="M76.6005,6.49625 C77.07225,5.571 77.9945,5.612 78.919,6.086 L78.96825,6.11125 C79.8785,4.33125 80.78325,4.40675 81.7085,4.87825 C82.63375,5.35 83.107,6.2765 82.6355,7.202 L80.9805,10.45 L77.50125,8.87125 C76.57575,8.39975 76.12875,7.4215 76.6005,6.49625 Z" id="Shape" fill="#FA004B"></path>
                <path d="M90.183,0.20025 C91.21125,0.05425 91.708,0.83275 91.8515,1.861 L91.859,1.91575 C93.83875,1.637 94.29725,2.42075 94.44325,3.44925 C94.58925,4.4775 94.10325,5.3975 93.075,5.5435 L89.46625,6.05675 L88.75775,2.30225 C88.61125,1.2745 89.15475,0.34675 90.183,0.20025 Z" id="Shape" fill="#FA004B"></path>
            </g>
        </g>
    </g>
</svg>