<?xml version="1.0" encoding="UTF-8"?>
<svg width="121px" height="128px" viewBox="0 0 121 128" version="1.1" xmlns="http://www.w3.org/2000/svg" xmlns:xlink="http://www.w3.org/1999/xlink">
    <!-- Generator: Sketch 43.2 (39069) - http://www.bohemiancoding.com/sketch -->
    <title>engagement-ring</title>
    <desc>Created with Sketch.</desc>
    <defs></defs>
    <g id="Page-1" stroke="none" stroke-width="1" fill="none" fill-rule="evenodd">
        <g id="50-Valentine's-Day-Element-Icons" transform="translate(-1172.000000, -1108.000000)" fill-rule="nonzero">
            <g id="engagement-ring" transform="translate(1172.000000, 1108.000000)">
                <path d="M80.5194751,45.95875 C70.5264315,45.95875 62.4254564,54.026 62.4254564,63.978 C62.4254564,68.59425 64.1686598,72.805 67.0352552,75.9935 L77.9817386,75.7195 C72.5389979,74.558 68.4568797,69.745 68.4568797,63.97825 C68.4568797,57.34375 73.8574461,51.9655 80.5194751,51.9655 C87.1812531,51.9655 92.5820705,57.34375 92.5820705,63.97825 C92.5820705,69.54825 88.7705705,74.21875 83.6069834,75.57875 L94.5933817,75.304 C97.1075207,72.20975 98.6134938,68.269 98.6134938,63.97825 C98.6134938,54.0265 90.5127697,45.95875 80.5194751,45.95875 Z" id="Shape" fill="#FAEDD6"></path>
                <path d="M86.2489004,31.501 C84.8927967,30.1505 82.6942116,30.1505 81.3381079,31.501 L80.5194751,32.31625 L79.7008423,31.501 C78.3447386,30.1505 76.1461535,30.1505 74.7900498,31.501 C73.4339461,32.8515 73.4339461,35.041 74.7900498,36.3915 L80.5192241,42.097 L86.2483983,36.3915 C87.6047531,35.041 87.6047531,32.85125 86.2489004,31.501 Z" id="Shape" fill="#FA004B"></path>
                <polyline id="Shape" fill="#FA004B" points="52.4226224 81.883 52.4226224 75.88525 110.554838 75.88525 110.554838 81.883"></polyline>
                <rect id="Rectangle-path" fill="#36C9A3" x="46.4004876" y="81.99775" width="70.1774896" height="6.00575"></rect>
                <path d="M40.394168,9.92075 L40.394168,88.0035 L19.158166,88.0035 C9.79020539,88.0035 2.19582365,80.4405 2.19582365,71.11125 L2.19582365,26.81275 C2.19582365,17.4835 9.79020539,9.9205 19.158166,9.9205 L40.394168,9.9205 L40.394168,9.92075 Z" id="Shape" fill="#36C9A3"></path>
                <rect id="Rectangle-path" fill="#FFFFFF" x="32.2680892" y="9.91975" width="8.04198133" height="78.08375"></rect>
                <path d="M101.755477,126.044 L57.273166,126.044 C47.9052054,126.044 40.3108237,118.481 40.3108237,109.15175 L40.3108237,88.0035 L118.718071,88.0035 L118.718071,109.15175 C118.71782,118.48125 111.123689,126.044 101.755477,126.044 Z" id="Shape" fill="#36C9A3"></path>
                <rect id="Rectangle-path" fill="#FFFFFF" x="40.3098195" y="88.0035" width="78.407749" height="8.00875"></rect>
                <rect id="Rectangle-path" fill="#FA004B" x="102.699629" y="94.1395" width="3.92773029" height="3.9115"></rect>
                <rect id="Rectangle-path" fill="#FA004B" x="108.722266" y="94.1395" width="3.92773029" height="3.9115"></rect>
                <rect id="Rectangle-path" fill="#FA004B" x="96.6769917" y="94.1395" width="3.92773029" height="3.9115"></rect>
                <path d="M42.3582842,86.048 L42.3582842,7.96475 L19.158166,7.96475 C8.72204149,7.96475 0.231958506,16.42 0.231958506,26.81275 L0.231958506,71.11125 C0.231958506,81.50425 8.72204149,89.95925 19.158166,89.95925 L38.3469585,89.95925 L38.3469585,109.15175 C38.3469585,119.54475 46.8370415,127.99975 57.273166,127.99975 L101.755728,127.99975 C112.191853,127.99975 120.681936,119.5445 120.681936,109.15175 L120.681936,86.04775 L42.3582842,86.04775 L42.3582842,86.048 Z M38.4303029,86.048 L38.3469585,86.048 L34.3544606,86.048 L34.3544606,68.06225 L30.4267303,68.06225 L30.4267303,86.048 L19.158166,86.048 C10.8879917,86.048 4.15993983,79.34775 4.15993983,71.11175 L4.15993983,26.81275 C4.15993983,18.57675 10.8879917,11.8765 19.158166,11.8765 L38.4303029,11.8765 L38.4303029,86.048 Z M101.755477,124.0885 L57.273166,124.0885 C49.0029917,124.0885 42.2749398,117.38825 42.2749398,109.15225 L42.2749398,98.05125 L94.581583,98.05125 L94.581583,94.13975 L42.2749398,94.13975 L42.2749398,89.95975 L42.3582842,89.95975 L116.754205,89.95975 L116.754205,94.13975 L114.744651,94.13975 L114.744651,98.05125 L116.754205,98.05125 L116.754205,109.152 C116.753954,117.38775 110.025902,124.0885 101.755477,124.0885 Z" id="Shape" fill="#232323"></path>
                <rect id="Rectangle-path" fill="#232323" x="30.4272324" y="59.978" width="3.92773029" height="5.99775"></rect>
                <path d="M112.649494,80.05775 L112.649494,74.06 L97.8297552,74.06 C99.6128734,71.018 100.577359,67.5295 100.577359,63.97825 C100.577359,55.02425 94.6305353,47.42775 86.4637884,44.899 L86.4637884,41.98475 L83.409668,41.98475 L87.637639,37.77425 C88.6643817,36.7515 89.2299689,35.392 89.2299689,33.94575 C89.2299689,32.49975 88.6646328,31.14025 87.637639,30.1175 C85.6988776,28.187 82.6482718,28.02225 80.5194751,29.623 C78.3911805,28.022 75.3403237,28.18675 73.4013112,30.1175 C72.3745685,31.14025 71.8089813,32.49975 71.8089813,33.94575 C71.8089813,35.392 72.3743174,36.7515 73.4013112,37.77425 L77.6292822,41.98475 L74.4185145,41.98475 L74.4185145,44.951 C66.3331037,47.52825 60.4618423,55.082 60.4618423,63.97825 C60.4618423,67.553 61.4225622,71.023 63.2076888,74.06 L50.3279668,74.06 L50.3279668,80.05775 L46.4002365,80.05775 L46.4002365,83.96925 L116.577726,83.96925 L116.577726,80.05775 L112.649494,80.05775 L112.649494,80.05775 Z M75.7372137,33.946 C75.7372137,33.545 75.894112,33.16775 76.1790394,32.88425 C76.4730041,32.5915 76.8593506,32.44475 77.2459481,32.44475 C77.6322946,32.44475 78.0186411,32.59125 78.3128568,32.88425 L80.5197261,35.08175 L82.7268465,32.88425 C83.315027,32.2985 84.2719813,32.2985 84.8601618,32.88425 C85.1450892,33.168 85.3019876,33.545 85.3019876,33.946 C85.3019876,34.34725 85.1450892,34.7245 84.8601618,35.00825 L80.5197261,39.331 L76.1792905,35.00825 C75.894112,34.7245 75.7372137,34.34725 75.7372137,33.946 Z M80.5194751,47.91475 C89.4137282,47.91475 96.6496286,55.12075 96.6496286,63.97825 C96.6496286,67.69225 95.4142739,71.17775 93.0771162,74.06 L90.2127801,74.06 C92.8800519,71.51575 94.5459357,67.938 94.5459357,63.97825 C94.5459357,56.276 88.2534336,50.01 80.5192241,50.01 C72.7850145,50.01 66.4925124,56.27625 66.4925124,63.97825 C66.4925124,67.938 68.1583963,71.51575 70.825668,74.06 L67.9633402,74.06 C65.6537967,71.2105 64.3893216,67.6625 64.3893216,63.97825 C64.3898237,55.12075 71.6257241,47.91475 80.5194751,47.91475 Z M80.5194751,74.03475 C74.9512158,74.03475 70.4207448,69.523 70.4207448,63.978 C70.4207448,58.433 74.9512158,53.92125 80.5194751,53.92125 C86.0877344,53.92125 90.6182054,58.433 90.6182054,63.978 C90.6182054,69.523 86.0882365,74.03475 80.5194751,74.03475 Z M108.721763,80.05775 L54.2556971,80.05775 L54.2556971,77.9715 L108.721763,77.9715 L108.721763,80.05775 Z" id="Shape" fill="#232323"></path>
                <rect id="Rectangle-path" fill="#36C9A3" x="98.7716473" y="0" width="3.92773029" height="5.99775"></rect>
                <rect id="Rectangle-path" fill="#FAEDD6" x="98.7716473" y="7.82325" width="3.92773029" height="4.1725"></rect>
                <rect id="Rectangle-path" fill="#36C9A3" x="98.7716473" y="13.821" width="3.92773029" height="5.99775"></rect>
                <rect id="Rectangle-path" fill="#36C9A3" x="104.532452" y="8.084" width="6.02263693" height="3.9115"></rect>
                <rect id="Rectangle-path" fill="#36C9A3" x="90.6541037" y="8.084" width="6.02263693" height="3.9115"></rect>
                <rect id="Rectangle-path" fill="#36C9A3" x="52.4231245" y="17.9935" width="3.92773029" height="5.99775"></rect>
                <rect id="Rectangle-path" fill="#FAEDD6" x="52.4231245" y="25.81675" width="3.92773029" height="4.1725"></rect>
                <rect id="Rectangle-path" fill="#36C9A3" x="52.4231245" y="31.8145" width="3.92773029" height="6.2585"></rect>
                <rect id="Rectangle-path" fill="#36C9A3" x="58.4457614" y="26.0775" width="6.02263693" height="3.9115"></rect>
                <rect id="Rectangle-path" fill="#36C9A3" x="44.3055809" y="26.0775" width="6.02263693" height="3.9115"></rect>
                <rect id="Rectangle-path" fill="#36C9A3" x="108.722266" y="33.90075" width="3.92773029" height="5.99775"></rect>
                <rect id="Rectangle-path" fill="#FAEDD6" x="108.722266" y="41.98475" width="3.92773029" height="3.9115"></rect>
                <rect id="Rectangle-path" fill="#36C9A3" x="108.722266" y="47.9825" width="3.92773029" height="5.99775"></rect>
                <rect id="Rectangle-path" fill="#36C9A3" x="114.744902" y="41.98475" width="6.02263693" height="3.9115"></rect>
                <rect id="Rectangle-path" fill="#36C9A3" x="100.604722" y="41.98475" width="6.02263693" height="3.9115"></rect>
            </g>
        </g>
    </g>
</svg>