<?xml version="1.0" encoding="UTF-8"?>
<svg width="56px" height="128px" viewBox="0 0 56 128" version="1.1" xmlns="http://www.w3.org/2000/svg" xmlns:xlink="http://www.w3.org/1999/xlink">
    <!-- Generator: Sketch 43.2 (39069) - http://www.bohemiancoding.com/sketch -->
    <title>doorknob</title>
    <desc>Created with Sketch.</desc>
    <defs></defs>
    <g id="Page-1" stroke="none" stroke-width="1" fill="none" fill-rule="evenodd">
        <g id="50-Valentine's-Day-Element-Icons" transform="translate(-1494.000000, -1108.000000)" fill-rule="nonzero">
            <g id="doorknob" transform="translate(1494.000000, 1108.000000)">
                <path d="M1.9875,125.784327 L54.0125,125.784327 L54.0125,27.9277037 C54.0125,13.5894581 42.36625,1.96566082 27.99975,1.96566082 L27.99975,1.96566082 C13.6335,1.96566082 1.987,13.5892086 1.987,27.9277037 L1.987,28.9262534 C1.987,32.7864639 5.1225,35.9158519 8.99025,35.9158519 L8.99025,35.9158519 C12.858,35.9158519 15.9935,32.7864639 15.9935,28.9262534 L15.9935,28.4299727 C15.9935,21.8687875 21.05925,16.147462 27.63,15.9505965 C34.42925,15.7469942 40.005,21.1873684 40.005,27.9274542 L40.005,28.9260039 C40.005,39.404039 31.49425,47.8981988 20.996,47.8981988 L20.996,47.8981988 C10.4975,47.8981988 1.98675,56.3923587 1.98675,66.8703938 L1.98675,125.784327 L1.9875,125.784327 Z" id="Shape" fill="#FA004B"></path>
                <path d="M42.213,80.0573879 C38.459,76.3107057 32.37225,76.3107057 28.61825,80.0573879 L28.00025,80.6741832 L27.38225,80.0573879 C23.62825,76.3107057 17.5415,76.3107057 13.7875,80.0573879 C10.0335,83.8040702 10.0335,89.8789552 13.7875,93.6256374 L28.00025,107.810682 L42.213,93.6256374 C45.967,89.8789552 45.967,83.8040702 42.213,80.0573879 Z" id="Shape" fill="#FAEDD6"></path>
                <rect id="Rectangle-path" fill="#36C9A3" x="1.9875" y="117.797676" width="52.026" height="7.98814815"></rect>
                <path d="M28.00025,110.591002 L12.3945,95.015922 C10.207,92.8326862 9.00175,89.9293567 9.002,86.8413879 C9.002,83.7536686 10.20675,80.8503392 12.3945,78.6668538 C14.582,76.4833684 17.491,75.2807173 20.585,75.2807173 C23.32625,75.2807173 25.92225,76.2251228 28.00025,77.9592359 C30.078,76.2251228 32.67425,75.2807173 35.4155,75.2807173 C38.50925,75.2807173 41.41825,76.4833684 43.606,78.6671033 L43.60575,78.6668538 L43.606,78.6671033 C45.7935,80.8500897 46.99875,83.7534191 46.99875,86.8413879 C46.99875,89.9293567 45.79375,92.8324366 43.60575,95.015922 L28.00025,110.591002 Z M20.585,79.2132865 C18.54375,79.2132865 16.62425,80.0067368 15.18075,81.447423 C13.737,82.8883587 12.94225,84.804117 12.94225,86.8413879 C12.94225,88.8786589 13.737,90.7944172 15.1805,92.2351033 L28.0005,105.030113 L40.82025,92.2351033 C42.264,90.7944172 43.059,88.8786589 43.059,86.8413879 C43.059,84.804117 42.264,82.8883587 40.8205,81.4476725 L40.82025,81.447423 C39.37675,80.0067368 37.45725,79.2132865 35.416,79.2132865 C33.37475,79.2132865 31.45525,80.0067368 30.01175,81.447423 L28.001,83.4542534 L25.99025,81.4476725 C24.54575,80.0067368 22.62625,79.2132865 20.585,79.2132865 Z" id="Shape" fill="#232323"></path>
                <rect id="Rectangle-path" fill="#232323" x="11.97875" y="115.779119" width="32.0435" height="3.93207018"></rect>
                <path d="M28.00025,0 C12.5705,0 0.01775,12.5285302 0.01775,27.9277037 L0.01775,28.9265029 C0.01775,33.8646082 4.04325,37.8822612 8.99125,37.8822612 C13.939,37.8822612 17.9645,33.8646082 17.9645,28.9265029 L17.9645,28.4302222 C17.9645,22.7934815 22.3275,18.076694 27.69,17.9162573 C30.43,17.8241871 33.02475,18.83646 34.9885,20.7389942 C36.95375,22.6422768 38.03625,25.1952904 38.03625,27.9279532 L38.03625,28.9267524 C38.03625,38.3036881 30.39225,45.9327875 20.997,45.9327875 C9.429,45.9327875 0.01775,55.325692 0.01775,66.8711423 L0.01775,127.750737 L55.983,127.750737 L55.983,27.9279532 C55.98275,12.5285302 43.42975,0 28.00025,0 Z M3.95725,123.818417 L3.95725,119.71094 L8.0385,119.71094 L8.0385,115.778869 L3.95725,115.778869 L3.95725,66.8708928 C3.95725,57.4937076 11.60125,49.8646082 20.99675,49.8646082 C32.56475,49.8646082 41.97575,40.4719532 41.97575,28.9265029 L41.97575,27.9277037 C41.97575,24.122386 40.46875,20.5673294 37.732,17.9170058 C34.99625,15.2676803 31.37675,13.8783938 27.5715,13.9856842 C20.1015,14.2094971 14.02425,20.6893411 14.02425,28.4304717 L14.02425,28.9267524 C14.02425,31.6968421 11.76625,33.9504405 8.99075,33.9504405 C6.21525,33.9504405 3.957,31.6968421 3.957,28.9267524 L3.957,27.9279532 C3.957,14.6962963 14.7425,3.93207018 27.99975,3.93207018 C41.257,3.93207018 52.0425,14.6962963 52.0425,27.9277037 L52.0425,115.77862 L47.96125,115.77862 L47.96125,119.71069 L52.0425,119.71069 L52.0425,123.818168 L3.95725,123.818168 L3.95725,123.818417 Z" id="Shape" fill="#232323"></path>
                <rect id="Rectangle-path" fill="#FFFFFF" x="25.89925" y="61.7783392" width="3.93975" height="8.12637817"></rect>
                <rect id="Rectangle-path" fill="#FFFFFF" transform="translate(36.007622, 67.867213) rotate(-135.008103) translate(-36.007622, -67.867213) " x="34.0377659" y="65.0430064" width="3.93971226" height="5.64841372"></rect>
                <rect id="Rectangle-path" fill="#FFFFFF" transform="translate(19.998386, 67.870301) rotate(-135.000000) translate(-19.998386, -67.870301) " x="17.1686636" y="65.9042844" width="5.65944573" height="3.93203247"></rect>
            </g>
        </g>
    </g>
</svg>