<?xml version="1.0" encoding="UTF-8"?>
<svg width="128px" height="116px" viewBox="0 0 128 116" version="1.1" xmlns="http://www.w3.org/2000/svg" xmlns:xlink="http://www.w3.org/1999/xlink">
    <!-- Generator: Sketch 43.2 (39069) - http://www.bohemiancoding.com/sketch -->
    <title>romantic-music</title>
    <desc>Created with Sketch.</desc>
    <defs></defs>
    <g id="Page-1" stroke="none" stroke-width="1" fill="none" fill-rule="evenodd">
        <g id="50-Valentine's-Day-Element-Icons" transform="translate(-214.000000, -2323.000000)" fill-rule="nonzero">
            <g id="romantic-music" transform="translate(214.000000, 2323.000000)">
                <ellipse id="Oval" fill="#36C9A3" cx="11.77975" cy="107.563819" rx="6.0245" ry="6.03751188"></ellipse>
                <ellipse id="Oval" fill="#36C9A3" cx="43.91575" cy="107.563819" rx="6.0245" ry="6.03751188"></ellipse>
                <path d="M55.967,101.526307 L64,109.576657 L116.68575,56.7771145 C129.15625,44.2796803 129.15625,24.0177624 116.68575,11.5203283 C104.21525,-0.977105832 83.997,-0.977105832 71.5265,11.5203283 L64,19.0628337 L56.4735,11.5200778 C44.003,-0.977356371 23.78475,-0.977356371 11.31425,11.5200778 C-1.15625,24.0175119 -1.15625,44.2794298 11.31425,56.7768639 L17.8075,63.2841382" id="Shape" fill="#FA004B"></path>
                <rect id="Rectangle-path" fill="#FAEDD6" x="15.84325" y="69.3208985" width="36.0845" height="8.05110151"></rect>
                <path d="M63.99975,112.355896 L54.58025,102.916302 L57.35375,100.136812 L63.99975,106.797417 L115.29925,55.3871188 C120.96,49.7143931 124.07775,42.1713866 124.07775,34.1485961 C124.07775,26.1255551 120.96,18.5827991 115.29925,12.9098229 C103.61375,1.19908423 84.59925,1.19883369 72.9135,12.9098229 L63.99975,21.8420734 L55.0865,12.9098229 C43.401,1.19858315 24.386,1.19908423 12.70075,12.9098229 C7.03975,18.5825486 3.92225,26.1255551 3.92225,34.1485961 C3.92225,42.1713866 7.04,49.7141425 12.70075,55.3871188 L19.194,61.8943931 L16.4205,64.6738834 L9.92725,58.1666091 C3.5255,51.7512829 0,43.2213996 0,34.1485961 C0,25.0755421 3.5255,16.5456587 9.92725,10.1303326 C16.32875,3.71525702 24.84025,0.181641469 33.89375,0.181641469 C42.947,0.181641469 51.4585,3.71475594 57.86,10.1303326 L63.9995,16.2833434 L70.1395,10.1303326 C83.354,-3.1132095 104.8565,-3.1132095 118.0725,10.1303326 C124.47375,16.5456587 127.99975,25.0755421 127.99975,34.1485961 C127.99975,43.2213996 124.47425,51.7512829 118.0725,58.1666091 L63.99975,112.355896 Z" id="Shape" fill="#232323"></path>
                <path d="M116.17175,33.0189114 L112.2495,33.0189114 C112.2495,24.10946 105.00875,16.9415119 96.1185,16.9415119 L96.1185,13.0107905 C107.1005,13.011041 116.17175,22.0129417 116.17175,33.0189114 Z" id="Shape" fill="#FFFFFF"></path>
                <rect id="Rectangle-path" fill="#FFFFFF" x="112.06825" y="37.2124492" width="3.92225" height="3.93072138"></rect>
                <path d="M51.928,75.2083369 L15.84375,75.2083369 L15.84375,100.676976 C14.6525,99.9684492 13.26375,99.5600691 11.78075,99.5600691 C7.377,99.5600691 3.79425,103.150307 3.79425,107.563819 C3.79425,111.97733 7.37675,115.567568 11.78075,115.567568 C16.13825,115.567568 19.6895,112.051741 19.76375,107.702117 L19.766,107.702117 L19.766,79.1390583 L48.006,79.1390583 L48.006,100.69276 C46.80875,99.9742117 45.40975,99.5598186 43.91575,99.5598186 C39.512,99.5598186 35.92925,103.150056 35.92925,107.563568 C35.92925,111.976829 39.51175,115.567317 43.91575,115.567317 C48.27325,115.567317 51.8245,112.05149 51.89875,107.701866 L51.928,75.2083369 Z M15.84375,107.589123 C15.83,109.823438 14.0135,111.636847 11.78075,111.636847 C9.53975,111.636847 7.7165,109.809659 7.7165,107.563819 C7.7165,105.317978 9.53975,103.49079 11.78075,103.49079 C14.01325,103.49079 15.82975,105.304449 15.84375,107.538514 L15.84375,107.589123 Z M43.9155,111.636847 C41.6745,111.636847 39.85125,109.809659 39.85125,107.563819 C39.85125,105.317978 41.6745,103.49079 43.9155,103.49079 C46.1565,103.49079 47.97975,105.317978 47.97975,107.563819 C47.97975,109.809659 46.15675,111.636847 43.9155,111.636847 Z" id="Shape" fill="#232323"></path>
                <rect id="Rectangle-path" fill="#232323" x="15.84325" y="67.3476458" width="36.0845" height="3.93072138"></rect>
            </g>
        </g>
    </g>
</svg>