<?xml version="1.0" encoding="UTF-8"?>
<svg width="128px" height="128px" viewBox="0 0 128 128" version="1.1" xmlns="http://www.w3.org/2000/svg" xmlns:xlink="http://www.w3.org/1999/xlink">
    <!-- Generator: Sketch 43.2 (39069) - http://www.bohemiancoding.com/sketch -->
    <title>love-letter-1</title>
    <desc>Created with Sketch.</desc>
    <defs></defs>
    <g id="Page-1" stroke="none" stroke-width="1" fill="none" fill-rule="evenodd">
        <g id="50-Valentine's-Day-Element-Icons" transform="translate(-214.000000, -1713.000000)" fill-rule="nonzero">
            <g id="love-letter-1" transform="translate(214.000000, 1713.000000)">
                <polyline id="Shape" fill="#FAEDD6" points="76.84925 29.5496784 126.02875 61.6917333 126.02875 125.97258 1.97125 125.97258 1.97125 61.6917333 51.21125 29.9359373"></polyline>
                <polygon id="Shape" fill="#36C9A3" points="103.97625 79.7708549 126.00775 61.6917333 76.84925 29.5496784 64.1755 42.5700392 51.20975 29.9346824 1.887 61.6917333 23.81575 79.7708549 23.81575 53.6987608 103.97625 53.6987608"></polygon>
                <polygon id="Shape" fill="#FFFFFF" points="103.97625 79.7708549 103.97625 53.6987608 23.81575 53.6987608 23.81575 79.7708549 45.90875 97.8356706 51.9945 93.8044235 76.0055 93.8044235 81.98725 97.8356706"></polygon>
                <path d="M83.28125,5.47639216 C78.50975,0.685929412 72.00675,0.980831373 67.2355,5.77129412 L64.181,8.83777255 L61.1265,5.77129412 C56.35475,0.980831373 48.80375,0.685929412 44.0325,5.47639216 C39.261,10.2666039 39.261,18.1486431 44.0325,22.9391059 L64.18125,42.5702902 L64.18125,42.5702902 L83.28175,22.9391059 C88.05275,18.1486431 88.05275,10.2663529 83.28125,5.47639216 Z" id="Shape" fill="#FA004B"></path>
                <rect id="Rectangle-path" fill="#FA004B" x="31.96425" y="61.8782118" width="23.91675" height="3.9577098"></rect>
                <rect id="Rectangle-path" fill="#FA004B" x="31.96425" y="71.9046275" width="18.13475" height="3.9577098"></rect>
                <rect id="Rectangle-path" fill="#FA004B" x="54.04125" y="71.9046275" width="41.7885" height="3.9577098"></rect>
                <rect id="Rectangle-path" fill="#FA004B" x="39.849" y="81.6670118" width="48.359" height="3.9577098"></rect>
                <rect id="Rectangle-path" fill="#FA004B" x="80.0605" y="61.8782118" width="3.6795" height="3.9577098"></rect>
                <rect id="Rectangle-path" fill="#FA004B" x="86.1055" y="61.8782118" width="3.94225" height="3.9577098"></rect>
                <rect id="Rectangle-path" fill="#FA004B" x="91.8875" y="61.8782118" width="3.94225" height="3.9577098"></rect>
                <rect id="Rectangle-path" fill="#FA004B" x="61.926" y="113.857004" width="4.20525" height="3.9577098"></rect>
                <rect id="Rectangle-path" fill="#FA004B" x="55.881" y="113.857004" width="4.20525" height="3.9577098"></rect>
                <rect id="Rectangle-path" fill="#FA004B" x="67.97075" y="113.857004" width="3.94225" height="3.9577098"></rect>
                <path d="M79.7725,29.3770039 L84.675,24.3383216 C87.355,21.6478118 88.831,18.0500078 88.831,14.207749 C88.831,10.3652392 87.35525,6.76768627 84.675,4.07717647 C81.96175,1.35328627 78.69325,-0.0376470588 75.20675,0.0527058824 C71.85425,0.14054902 68.52825,1.6742902 65.841,4.37207843 L64.18075,6.03934118 L62.52,4.37207843 C59.8335,1.67504314 56.32,0.14105098 52.626,0.0527058824 C48.86325,-0.039654902 45.313,1.39168627 42.63825,4.07692549 C37.074,9.66299608 37.074,18.752 42.63825,24.3380706 L47.9765,29.5391373 L0,60.6132706 L0,127.951561 L128,127.951561 L128,60.6132706 L79.7725,29.3770039 Z M42.426,97.4777725 L3.9425,122.234478 L3.9425,65.8675451 L42.426,97.4777725 Z M101.87375,78.975749 L82.08025,95.2340078 L76.5835,91.6936784 L51.417,91.6936784 L45.91725,95.232 L25.9185,78.8050824 L25.9185,55.5457255 L101.87375,55.5457255 L101.87375,78.975749 L101.87375,78.975749 Z M52.572,95.6513882 L75.42775,95.6513882 L119.4305,123.993851 L8.5145,123.993851 L52.572,95.6513882 Z M85.5695,97.4812863 L124.0575,65.8675451 L124.0575,122.271875 L85.5695,97.4812863 Z M45.426,6.87560784 C47.331,4.96313725 49.85175,3.94591373 52.53225,4.00941176 C55.20875,4.07341176 57.76575,5.19629804 59.7325,7.1705098 L64.181,11.6362039 L68.62925,7.1705098 C70.6275,5.16442353 72.93775,4.07140392 75.30975,4.00941176 C77.6925,3.94465882 79.958,4.93854118 81.8875,6.87560784 C83.823,8.81869804 84.889,11.4226196 84.889,14.207749 C84.889,16.9928784 83.823,19.596549 81.8715,21.5562039 L64.144,39.7761255 L45.41675,21.5296 C41.39875,17.4863059 41.40225,10.9151373 45.426,6.87560784 Z M64.218,45.363702 L76.9615,32.2660392 L119.422,59.7672157 L113.96375,59.7672157 L113.96375,63.7249255 L120.44075,63.7249255 L105.81625,75.737349 L105.81625,63.7249255 L110.28425,63.7249255 L110.28425,59.7672157 L105.81625,59.7672157 L105.81625,51.5877647 L21.97625,51.5877647 L21.97625,59.7672157 L18.034,59.7672157 L18.034,63.7249255 L21.97625,63.7249255 L21.97625,75.5664314 L7.55975,63.7249255 L14.0915,63.7249255 L14.0915,59.7672157 L8.57825,59.7672157 L50.8805,32.3681882 L64.218,45.363702 Z" id="Shape" fill="#232323"></path>
            </g>
        </g>
    </g>
</svg>