<?xml version="1.0" encoding="UTF-8"?>
<svg width="128px" height="120px" viewBox="0 0 128 120" version="1.1" xmlns="http://www.w3.org/2000/svg" xmlns:xlink="http://www.w3.org/1999/xlink">
    <!-- Generator: Sketch 43.2 (39069) - http://www.bohemiancoding.com/sketch -->
    <title>coffee</title>
    <desc>Created with Sketch.</desc>
    <defs></defs>
    <g id="Page-1" stroke="none" stroke-width="1" fill="none" fill-rule="evenodd">
        <g id="50-Valentine's-Day-Element-Icons" transform="translate(-214.000000, -508.000000)" fill-rule="nonzero">
            <g id="coffee" transform="translate(214.000000, 508.000000)">
                <path d="M73.31925,3.72325 C70.9745,1.3785 67.1735,1.3785 64.82875,3.72325 L64,4.55225 L63.171,3.72325 C60.82625,1.3785 57.02525,1.3785 54.6805,3.72325 C52.33575,6.068 52.33575,9.869 54.6805,12.21375 L63.7405,22.1195 L72.49025,13.04275 L73.31925,12.21375 C75.664,9.86925 75.664,6.068 73.31925,3.72325 Z" id="Shape" fill="#FA004B"></path>
                <path d="M39.94975,118.03475 L39.94975,118.03475 C28.8975,118.03475 19.93775,109.075 19.93775,98.02275 L19.93775,57.99875 L59.962,57.99875 L59.962,98.023 C59.96175,109.07525 51.002,118.03475 39.94975,118.03475 Z" id="Shape" fill="#36C9A3"></path>
                <path d="M88.05025,118.03475 L88.05025,118.03475 C76.998,118.03475 68.03825,109.075 68.03825,98.02275 L68.03825,57.99875 L108.0625,57.99875 L108.0625,98.023 C108.06225,109.07525 99.10275,118.03475 88.05025,118.03475 Z" id="Shape" fill="#36C9A3"></path>
                <rect id="Rectangle-path" fill="#FFFFFF" x="19.974" y="64.00275" width="39.98725" height="14.00775"></rect>
                <rect id="Rectangle-path" fill="#FFFFFF" x="68.05525" y="64.00275" width="39.98725" height="14.00775"></rect>
                <rect id="Rectangle-path" fill="#FA004B" x="19.9375" y="57.99975" width="40.024" height="6.00375"></rect>
                <rect id="Rectangle-path" fill="#FA004B" x="68.03675" y="57.99975" width="40.024" height="6.00375"></rect>
                <path d="M60.14025,67.8505 L53.994,67.8505 C48.46775,67.8505 43.988,72.399 43.988,77.92525 C43.988,83.4515 48.468,88 53.994,88 L60.14025,88" id="Shape" fill="#FAEDD6"></path>
                <path d="M67.99075,67.8505 L74.006,67.8505 C79.53225,67.8505 84.012,72.399 84.012,77.92525 C84.012,83.4515 79.532,88 74.006,88 L67.99075,88" id="Shape" fill="#FAEDD6"></path>
                <rect id="Rectangle-path" fill="#232323" x="38.15825" y="62.0925" width="5.757" height="3.92525"></rect>
                <path d="M17.975,60.0385 L9.9675,60.0385 C4.4715,60.0385 0,64.50975 0,70.006 L0,82.0135 C0,87.50925 4.471,91.98075 9.96725,91.98075 L15.95325,91.98075 C16.5,91.98075 17.01325,92.194 17.39875,92.58125 C17.7215,92.9055 17.91975,93.319 17.97525,93.76525 L17.97525,94.277 C17.848,95.28025 16.989,96.06 15.95325,96.06 L11.9685,96.06 L11.9685,99.98525 L15.953,99.98525 C16.686,99.98525 17.3885,99.851 18.03825,99.60675 C18.85375,110.98625 28.366,119.997 39.9495,119.997 C52.06625,119.997 61.924,110.13925 61.924,98.0225 L61.924,56.036 L17.975,56.036 L17.975,60.0385 Z M15.953,88.0555 L9.96725,88.0555 C6.6355,88.0555 3.92525,85.345 3.92525,82.0135 L3.92525,70.006 C3.92525,66.67425 6.63575,63.96375 9.9675,63.96375 L17.975,63.96375 L17.975,88.41275 C17.3345,88.18225 16.65425,88.0555 15.953,88.0555 Z M57.999,85.90625 L53.994,85.90625 C49.55875,85.90625 45.9505,82.326 45.9505,77.925 C45.9505,73.524 49.55875,69.94375 53.994,69.94375 L57.999,69.94375 L57.999,85.90625 L57.999,85.90625 Z M21.90025,66.01875 L36.06575,66.01875 L36.06575,62.0935 L21.90025,62.0935 L21.90025,59.9615 L57.999,59.9615 L57.999,66.0185 L53.994,66.0185 C48.06675,66.0185 43.1345,70.328 42.191,75.96225 L21.90025,75.96225 L21.90025,66.01875 Z M42.191,79.88775 C43.1345,85.522 48.06675,89.8315 53.994,89.8315 L57.999,89.8315 L57.999,98.02275 C57.999,107.97525 49.902,116.07225 39.9495,116.07225 C29.997,116.07225 21.9,107.97525 21.9,98.02275 L21.9,94.45925 C21.91,94.323 21.917,94.18575 21.91775,94.047 C21.91825,93.91225 21.908,93.7795 21.9,93.64625 L21.9,79.8875 L42.191,79.88775 L42.191,79.88775 Z" id="Shape" fill="#232323"></path>
                <path d="M118.0325,60.0385 L110.025,60.0385 L110.025,56.036 L66.0755,56.036 L66.0755,98.02275 C66.0755,110.1395 75.93325,119.99725 88.05025,119.99725 C99.63375,119.99725 109.146,110.98625 109.9615,99.607 C110.61125,99.851 111.31375,99.9855 112.04675,99.9855 L116.031,99.9855 L116.031,96.06025 L112.04675,96.06025 C111.01125,96.06025 110.15225,95.28075 110.02475,94.278 L110.02475,93.7645 C110.08025,93.31825 110.2785,92.90525 110.60125,92.58125 C110.987,92.194 111.5005,91.98075 112.04675,91.98075 L118.03275,91.98075 C123.5285,91.98075 127.99975,87.50975 127.99975,82.01375 L127.99975,70.00625 C128,64.51 123.52875,60.0385 118.0325,60.0385 Z M70.00075,69.94375 L74.006,69.94375 C78.44125,69.94375 82.0495,73.524 82.0495,77.925 C82.0495,82.326 78.44125,85.90625 74.006,85.90625 L70.00075,85.90625 L70.00075,69.94375 Z M106.09975,93.6445 C106.09125,93.7785 106.08125,93.912 106.082,94.04725 C106.0825,94.1865 106.08975,94.324 106.09975,94.461 L106.09975,98.023 C106.09975,107.9755 98.00275,116.0725 88.05025,116.0725 L88.05025,116.0725 C78.09775,116.0725 70.00075,107.9755 70.00075,98.023 L70.00075,89.83175 L74.006,89.83175 C79.93325,89.83175 84.8655,85.52225 85.809,79.888 L106.1,79.888 L106.1,93.64475 L106.09975,93.64475 L106.09975,93.6445 Z M106.09975,62.0935 L92.327,62.0935 L92.327,66.01875 L106.09975,66.01875 L106.09975,75.9625 L85.809,75.9625 C84.8655,70.32825 79.93325,66.01875 74.006,66.01875 L70.00075,66.01875 L70.00075,59.96175 L106.09975,59.96175 L106.09975,62.0935 Z M124.07475,82.0135 C124.07475,85.345 121.36425,88.0555 118.03275,88.0555 L112.04675,88.0555 C111.3455,88.0555 110.66525,88.1825 110.02475,88.41275 L110.02475,63.96375 L118.0325,63.96375 C121.36425,63.96375 124.07475,66.67425 124.07475,70.006 L124.07475,82.0135 L124.07475,82.0135 Z" id="Shape" fill="#232323"></path>
                <rect id="Rectangle-path" fill="#232323" x="83.95225" y="62.0925" width="6.01875" height="3.92525"></rect>
                <path d="M63.70275,24.98625 L53.2595,13.56875 C51.77575,12.068 50.959,10.081 50.959,7.969 C50.959,5.84125 51.78775,3.84075 53.2925,2.336 C54.79725,0.83125 56.79775,0.0025 58.9255,0.0025 C60.79975,0.0025 62.57525,0.6455 64,1.827 C67.1265,-0.76025 71.781,-0.59025 74.707,2.336 C76.21175,3.84075 77.0405,5.84125 77.0405,7.969 C77.0405,10.09675 76.21175,12.09725 74.707,13.602 L73.89075,14.41825 L63.70275,24.98625 Z M58.926,3.9275 C57.8465,3.9275 56.832,4.34775 56.06875,5.111 C54.49325,6.6865 54.49325,9.25025 56.06875,10.82575 L56.12925,10.88875 L63.7785,19.252 L71.103,11.65475 L71.932,10.82575 C73.5075,9.25025 73.5075,6.6865 71.932,5.111 C70.3565,3.5355 67.79275,3.5355 66.217,5.111 L64.0005,7.328 L61.7835,5.111 C61.01975,4.34775 60.005,3.9275 58.926,3.9275 Z" id="Shape" fill="#232323"></path>
                <path d="M55.9565,47.9925 L52.03125,47.9925 L52.03125,32.9835 C52.03125,31.307 50.66725,29.943 48.99075,29.943 C45.14975,29.943 42.025,26.81825 42.025,22.97725 L42.025,13.97225 L45.95025,13.97225 L45.95025,22.97775 C45.95025,24.65425 47.31425,26.01825 48.99075,26.01825 C52.83175,26.01825 55.9565,29.143 55.9565,32.984 L55.9565,47.9925 Z" id="Shape" fill="#232323"></path>
                <rect id="Rectangle-path" fill="#232323" x="36.06475" y="28.074" width="3.92525" height="15.70075"></rect>
                <rect id="Rectangle-path" fill="#232323" x="44.17675" y="36.186" width="3.92525" height="13.869"></rect>
                <rect id="Rectangle-path" fill="#232323" x="36.06475" y="47.96175" width="3.92525" height="5.757"></rect>
                <rect id="Rectangle-path" fill="#232323" x="27.95275" y="38.01775" width="3.92525" height="12.03725"></rect>
                <path d="M75.9685,47.9925 L72.04325,47.9925 L72.04325,32.9835 C72.04325,29.1425 75.168,26.01775 79.009,26.01775 C80.6855,26.01775 82.0495,24.65375 82.0495,22.97725 L82.0495,13.97225 L85.97475,13.97225 L85.97475,22.97775 C85.97475,26.81875 82.85,29.9435 79.009,29.9435 C77.3325,29.9435 75.9685,31.3075 75.9685,32.984 L75.9685,47.9925 Z" id="Shape" fill="#232323"></path>
                <rect id="Rectangle-path" fill="#232323" x="88.139" y="28.074" width="3.92525" height="15.70075"></rect>
                <rect id="Rectangle-path" fill="#232323" x="80.027" y="36.186" width="3.92525" height="13.869"></rect>
                <rect id="Rectangle-path" fill="#232323" x="88.139" y="47.96175" width="3.92525" height="5.757"></rect>
                <rect id="Rectangle-path" fill="#232323" x="95.9895" y="38.01775" width="3.92525" height="12.03725"></rect>
            </g>
        </g>
    </g>
</svg>