<?xml version="1.0" encoding="UTF-8"?>
<svg width="128px" height="128px" viewBox="0 0 128 128" version="1.1" xmlns="http://www.w3.org/2000/svg" xmlns:xlink="http://www.w3.org/1999/xlink">
    <!-- Generator: Sketch 43.2 (39069) - http://www.bohemiancoding.com/sketch -->
    <title>cake</title>
    <desc>Created with Sketch.</desc>
    <defs></defs>
    <g id="Page-1" stroke="none" stroke-width="1" fill="none" fill-rule="evenodd">
        <g id="50-Valentine's-Day-Element-Icons" transform="translate(-555.000000, -2921.000000)" fill-rule="nonzero">
            <g id="cake" transform="translate(555.000000, 2921.000000)">
                <path d="M42.00025,63.979 L42.00025,54.526 C42.00025,49.80575 45.82675,45.97925 50.547,45.97925 L77.453,45.97925 C82.17325,45.97925 85.99975,49.80575 85.99975,54.526 L85.99975,63.979" id="Shape" fill="#FA004B"></path>
                <rect id="Rectangle-path" fill="#FFFFFF" x="42.05725" y="51.96275" width="6.00825" height="3.91825"></rect>
                <rect id="Rectangle-path" fill="#FFFFFF" x="79.93475" y="51.96275" width="6.00825" height="3.91825"></rect>
                <rect id="Rectangle-path" fill="#36C9A3" x="49.894" y="51.96275" width="4.1795" height="3.91825"></rect>
                <rect id="Rectangle-path" fill="#FFFFFF" x="55.902" y="51.96275" width="4.1795" height="3.91825"></rect>
                <rect id="Rectangle-path" fill="#36C9A3" x="61.91025" y="51.96275" width="4.1795" height="3.91825"></rect>
                <rect id="Rectangle-path" fill="#FFFFFF" x="67.91825" y="51.96275" width="4.1795" height="3.91825"></rect>
                <rect id="Rectangle-path" fill="#36C9A3" x="73.9265" y="51.96275" width="4.1795" height="3.91825"></rect>
                <path d="M30.00025,87.97875 L30.00025,73.35575 C30.00025,68.17725 34.1985,63.979 39.377,63.979 L90.623,63.979 C95.8015,63.979 99.99975,68.17725 99.99975,73.35575 L99.99975,87.97875" id="Shape" fill="#36C9A3"></path>
                <path d="M99.9995,75.979 L30.00025,75.979 L30.00025,72.6935 C30.00025,67.88075 33.902,63.979 38.71475,63.979 L91.28475,63.979 C96.0975,63.979 99.99925,67.88075 99.99925,72.6935 L99.99925,75.979 L99.9995,75.979 Z" id="Shape" fill="#FFFFFF"></path>
                <path d="M20.00075,125.97825 L20.00075,97.22875 C20.00075,92.12 24.14225,87.97875 29.25075,87.97875 L100.7495,87.97875 C105.85825,87.97875 109.9995,92.12025 109.9995,97.22875 L109.9995,125.97825" id="Shape" fill="#FA004B"></path>
                <path d="M109.99925,97.97875 L107.99925,95.97875 L99.99925,99.9785 L91.99925,95.97875 L83.99925,99.9785 L75.99925,95.97875 L67.99925,99.9785 L59.99925,95.97875 L51.99925,99.9785 L43.99925,95.97875 L35.99925,99.9785 L27.99925,95.97875 L19.99925,99.9785 L19.99925,97.9785 C19.99925,92.45575 24.4765,87.9785 29.99925,87.9785 L99.99825,87.9785 C105.5225,87.97875 109.99925,92.456 109.99925,97.97875 L109.99925,97.97875 Z" id="Shape" fill="#FAEDD6"></path>
                <path d="M79.69825,4.909 C75.793,1.00375 69.4615,1.00375 65.55625,4.909 L64.121,6.34425 L62.68575,4.909 C58.7805,1.00375 52.44925,1.00375 48.54375,4.909 C44.6385,8.814 44.6385,15.1455 48.54375,19.051 L64,35.9795 L79.69825,19.05075 C83.6035,15.1455 83.6035,8.814 79.69825,4.909 Z" id="Shape" fill="#FAEDD6"></path>
                <rect id="Rectangle-path" fill="#36C9A3" x="26.1225" y="102.11775" width="3.91825" height="3.91825"></rect>
                <rect id="Rectangle-path" fill="#36C9A3" x="42.05725" y="102.11775" width="3.91825" height="3.91825"></rect>
                <rect id="Rectangle-path" fill="#36C9A3" x="57.99175" y="102.11775" width="3.91825" height="3.91825"></rect>
                <rect id="Rectangle-path" fill="#36C9A3" x="73.9265" y="102.11775" width="4.1795" height="3.91825"></rect>
                <rect id="Rectangle-path" fill="#36C9A3" x="90.1225" y="102.11775" width="3.91825" height="3.91825"></rect>
                <rect id="Rectangle-path" fill="#36C9A3" x="106.05725" y="102.11775" width="3.91825" height="3.91825"></rect>
                <path d="M44.97425,73.772 C44.159,72.95675 42.83725,72.95675 42.022,73.772 L41.97875,73.81525 C41.1635,73 39.84175,73 39.0265,73.81525 C38.21125,74.6305 38.21125,75.95225 39.0265,76.7675 L41.97875,79.71975 L44.9745,76.724 C45.7895,75.909 45.7895,74.58725 44.97425,73.772 Z" id="Shape" fill="#FA004B"></path>
                <path d="M90.97375,73.772 C90.1585,72.95675 88.83675,72.95675 88.0215,73.772 L87.97825,73.81525 C87.163,73 85.84125,73 85.026,73.81525 C84.21075,74.6305 84.21075,75.95225 85.026,76.7675 L87.97825,79.71975 L90.974,76.724 C91.789,75.909 91.789,74.58725 90.97375,73.772 Z" id="Shape" fill="#FA004B"></path>
                <path d="M66.974,73.772 C66.15875,72.95675 64.837,72.95675 64.02175,73.772 L63.9785,73.81525 C63.16325,73 61.8415,73 61.02625,73.81525 C60.211,74.6305 60.211,75.95225 61.02625,76.7675 L63.9785,79.71975 L66.97425,76.724 C67.78925,75.909 67.78925,74.58725 66.974,73.772 Z" id="Shape" fill="#FA004B"></path>
                <rect id="Rectangle-path" fill="#232323" x="48.06525" y="73.90575" width="9.9265" height="3.91825"></rect>
                <rect id="Rectangle-path" fill="#232323" x="70.00825" y="73.90575" width="12.01625" height="3.91825"></rect>
                <path d="M111.95875,124.06075 L111.95875,97.229 C111.95875,91.04825 106.9305,86.01975 100.7495,86.01975 L29.2505,86.01975 C23.06975,86.01975 18.04125,91.04825 18.04125,97.229 L18.04125,124.06075 L0,124.06075 L0,127.979 L128,127.979 L128,124.06075 L111.95875,124.06075 Z M29.2505,89.938 L100.7495,89.938 C103.65725,89.938 106.17175,91.64925 107.34125,94.11725 L99.9995,97.788 L91.99975,93.788 L83.99975,97.788 L75.99975,93.788 L68,97.788 L60,93.788 L52.00025,97.788 L44.00025,93.788 L36.00025,97.788 L28.0005,93.788 L21.973,96.80175 C22.19525,92.98 25.37375,89.938 29.2505,89.938 Z M108.04025,124.06075 L21.9595,124.06075 L21.9595,101.1895 L28.00025,98.16925 L36,102.169 L44,98.16925 L52,102.169 L59.99975,98.16925 L67.99975,102.169 L75.9995,98.16925 L83.9995,102.169 L91.9995,98.16925 L99.99925,102.169 L107.61275,98.3625 L108.0405,98.79 L108.04025,124.06075 L108.04025,124.06075 Z" id="Shape" fill="#232323"></path>
                <path d="M31.95975,77.824 L36.049,77.824 L36.049,73.90575 L31.95975,73.90575 L31.95975,73.35575 C31.95975,69.26575 35.287,65.93825 39.37725,65.93825 L90.62325,65.93825 C94.71325,65.93825 98.04075,69.26575 98.04075,73.35575 L98.04075,73.90575 L94.041,73.90575 L94.041,77.824 L98.0405,77.824 L98.0405,83.979 L101.95875,83.979 L101.95875,73.35575 C101.95875,67.10525 96.8735,62.02 90.623,62.02 L39.377,62.02 C33.1265,62.02 28.04125,67.10525 28.04125,73.35575 L28.04125,83.979 L31.9595,83.979 L31.9595,77.824 L31.95975,77.824 Z" id="Shape" fill="#232323"></path>
                <path d="M43.9595,54.52625 C43.9595,50.894 46.91475,47.93875 50.547,47.93875 L77.453,47.93875 C81.08525,47.93875 84.0405,50.894 84.0405,54.52625 L84.0405,59.97925 L87.95875,59.97925 L87.95875,54.52625 C87.95875,48.73325 83.24575,44.02025 77.45275,44.02025 L50.547,44.02025 C44.754,44.02025 40.041,48.73325 40.041,54.52625 L40.041,59.97925 L43.95925,59.97925 L43.95925,54.52625 L43.9595,54.52625 Z" id="Shape" fill="#232323"></path>
                <path d="M61.91025,36.5965 L61.91025,42.0365 L65.8285,42.0365 L65.8285,36.88925 L81.11075,20.409 C83.35225,18.15325 84.5865,15.1615 84.5865,11.97975 C84.5865,8.78525 83.34225,5.78225 81.08375,3.5235 C78.82475,1.26475 75.82175,0.02075 72.627,0.02075 C69.4325,0.02075 66.4295,1.26475 64.17075,3.5235 L64.1215,3.57325 L64.07175,3.5235 C61.81275,1.26475 58.80975,0.02075 55.61525,0.02075 C52.42075,0.02075 49.41775,1.26475 47.159,3.5235 C42.50725,8.175 42.49675,15.7375 47.12625,20.40325 L61.91025,36.5965 Z M49.93,6.29425 C51.4485,4.7755 53.46775,3.939 55.6155,3.939 C57.76325,3.939 59.78225,4.7755 61.30125,6.29425 L64.12175,9.1145 L66.94225,6.294 C68.46075,4.77525 70.48,3.93875 72.62775,3.93875 C74.7755,3.93875 76.7945,4.77525 78.31325,6.294 L78.3135,6.294 C79.832,7.81275 80.66875,9.83175 80.66875,11.9795 C80.66875,14.12725 79.83225,16.1465 78.31325,17.66525 L64.01175,33.08575 L49.99175,17.72975 L49.93025,17.66525 C46.79475,14.5305 46.79475,9.4295 49.93,6.29425 Z" id="Shape" fill="#232323"></path>
                <rect id="Rectangle-path" fill="#FA004B" x="15.93475" y="3.8975" width="4.1795" height="3.91825"></rect>
                <rect id="Rectangle-path" fill="#FAEDD6" x="0" y="8.077" width="3.91825" height="3.91825"></rect>
                <rect id="Rectangle-path" fill="#36C9A3" x="9.9265" y="63.979" width="4.1795" height="3.91825"></rect>
                <rect id="Rectangle-path" fill="#FA004B" x="100.049" y="32.10975" width="3.91825" height="3.91825"></rect>
                <rect id="Rectangle-path" fill="#36C9A3" x="119.902" y="20.0935" width="4.1795" height="3.91825"></rect>
                <rect id="Rectangle-path" fill="#FAEDD6" x="91.951" y="8.077" width="3.91825" height="3.91825"></rect>
                <rect id="Rectangle-path" fill="#FAEDD6" x="124.08175" y="2.069" width="3.91825" height="3.91825"></rect>
                <rect id="Rectangle-path" fill="#36C9A3" x="113.894" y="57.971" width="4.1795" height="3.91825"></rect>
                <rect id="Rectangle-path" fill="#FAEDD6" x="8.098" y="39.9465" width="3.91825" height="3.91825"></rect>
                <rect id="Rectangle-path" fill="#FA004B" x="24.03275" y="33.93825" width="3.91825" height="3.91825"></rect>
                <rect id="Rectangle-path" fill="#36C9A3" x="43.88575" y="36.028" width="4.1795" height="3.91825"></rect>
                <path d="M11.63075,35.06625 L8.37075,32.89275 L10.80175,29.24625 C11.19475,28.657 11.11625,27.86575 10.6155,27.365 C8.79875,25.54825 8.51425,22.6775 9.93975,20.53975 L12.371,16.89325 L15.631,19.06675 L13.19975,22.71325 C12.80675,23.3025 12.88525,24.09375 13.386,24.59425 C15.203,26.41125 15.487,29.282 14.06175,31.41975 L11.63075,35.06625 Z" id="Shape" fill="#36C9A3"></path>
                <path d="M31.63075,23.0665 L28.37075,20.893 L30.80175,17.2465 C31.19475,16.65725 31.11625,15.866 30.6155,15.36525 C28.79875,13.5485 28.51425,10.67775 29.93975,8.54 L32.371,4.8935 L35.631,7.067 L33.19975,10.7135 C32.80675,11.30275 32.88525,12.094 33.386,12.5945 C35.203,14.4115 35.487,17.28225 34.06175,19.42 L31.63075,23.0665 Z" id="Shape" fill="#FAEDD6"></path>
                <path d="M27.6305,61.066 L24.3705,58.8925 L26.80175,55.246 C27.19475,54.65675 27.116,53.8655 26.61525,53.36475 C24.7985,51.548 24.514,48.67725 25.9395,46.5395 L28.37075,42.893 L31.63075,45.0665 L29.1995,48.713 C28.8065,49.30225 28.885,50.0935 29.38575,50.594 C31.20275,52.41125 31.487,55.28175 30.06175,57.4195 L27.6305,61.066 Z" id="Shape" fill="#FA004B"></path>
                <path d="M109.62975,57.066 L106.36975,54.8925 L108.80075,51.246 C109.19375,50.65675 109.11525,49.8655 108.6145,49.36475 C106.79775,47.548 106.5135,44.67725 107.93875,42.53925 L110.37,38.89275 L113.63,41.06625 L111.19875,44.71275 C110.80575,45.302 110.88425,46.09325 111.38525,46.594 C113.202,48.411 113.486,51.2815 112.06075,53.41925 L109.62975,57.066 Z" id="Shape" fill="#FAEDD6"></path>
                <path d="M89.62975,37.0665 L86.36975,34.893 L88.80075,31.2465 C89.19375,30.65725 89.11525,29.866 88.6145,29.36525 C86.79775,27.5485 86.51325,24.67775 87.93875,22.54 L90.37,18.8935 L93.63,21.067 L91.19875,24.7135 C90.80575,25.30275 90.88425,26.094 91.385,26.5945 C93.202,28.4115 93.486,31.28225 92.06075,33.42 L89.62975,37.0665 Z" id="Shape" fill="#36C9A3"></path>
                <path d="M107.62975,25.0665 L104.36975,22.893 L106.801,19.2465 C107.194,18.65725 107.11525,17.866 106.6145,17.36525 C104.79775,15.5485 104.51325,12.67775 105.93875,10.54 L108.37,6.8935 L111.63,9.067 L109.19875,12.7135 C108.80575,13.30275 108.88425,14.094 109.385,14.5945 C111.202,16.41175 111.48625,19.28225 110.061,21.42 L107.62975,25.0665 Z" id="Shape" fill="#FA004B"></path>
            </g>
        </g>
    </g>
</svg>