<?xml version="1.0" encoding="UTF-8"?>
<svg width="128px" height="122px" viewBox="0 0 128 122" version="1.1" xmlns="http://www.w3.org/2000/svg" xmlns:xlink="http://www.w3.org/1999/xlink">
    <!-- Generator: Sketch 43.2 (39069) - http://www.bohemiancoding.com/sketch -->
    <title>gift</title>
    <desc>Created with Sketch.</desc>
    <defs></defs>
    <g id="Page-1" stroke="none" stroke-width="1" fill="none" fill-rule="evenodd">
        <g id="50-Valentine's-Day-Element-Icons" transform="translate(-214.000000, -1111.000000)" fill-rule="nonzero">
            <g id="gift" transform="translate(214.000000, 1111.000000)">
                <polygon id="Shape" fill="#FA004B" points="117.0945 87.36907 117.0945 119.82358 10.03025 119.82358 10.03025 38.6875556 117.0945 38.6875556"></polygon>
                <rect id="Rectangle-path" fill="#FFFFFF" x="18.11125" y="83.3129465" width="38.38025" height="28.3983868"></rect>
                <rect id="Rectangle-path" fill="#FAEDD6" x="64.572" y="38.6868025" width="16.16125" height="81.1360247"></rect>
                <path d="M122.41975,65.0875021 C117.6025,60.250177 111.0375,60.5481481 106.22025,65.3854733 L103.1365,68.4819136 L100.05275,65.3854733 C95.23525,60.5481481 87.61225,60.250428 82.79525,65.0875021 C77.978,69.9245761 77.978,77.8834444 82.79525,82.7207695 L103.1365,102.54351 L103.1365,102.54351 L122.41975,82.7207695 C127.237,77.8834444 127.237,69.9243251 122.41975,65.0875021 Z" id="SVGCleanerId_0" fill="#36C9A3"></path>
                <path d="M122.41975,65.0875021 C117.6025,60.250177 111.0375,60.5481481 106.22025,65.3854733 L103.1365,68.4819136 L100.05275,65.3854733 C95.23525,60.5481481 87.61225,60.250428 82.79525,65.0875021 C77.978,69.9245761 77.978,77.8834444 82.79525,82.7207695 L103.1365,102.54351 L103.1365,102.54351 L122.41975,82.7207695 C127.237,77.8834444 127.237,69.9243251 122.41975,65.0875021 Z" id="SVGCleanerId_0_1_" fill="#36C9A3"></path>
                <rect id="Rectangle-path" fill="#FA004B" x="1.95" y="22.4590453" width="123.224" height="16.2277572"></rect>
                <rect id="Rectangle-path" fill="#FAEDD6" x="60.53175" y="22.4590453" width="24.24175" height="16.2277572"></rect>
                <rect id="Rectangle-path" fill="#FFFFFF" x="100.89575" y="55.144251" width="3.9" height="3.65497942"></rect>
                <rect id="Rectangle-path" fill="#232323" x="70.4765" y="42.874214" width="3.9" height="3.91604938"></rect>
                <rect id="Rectangle-path" fill="#FFFFFF" x="70.4765" y="48.878823" width="3.9" height="4.17711934"></rect>
                <rect id="Rectangle-path" fill="#232323" x="70.4765" y="55.144251" width="3.9" height="3.65497942"></rect>
                <rect id="Rectangle-path" fill="#FFFFFF" x="70.4765" y="60.8877901" width="3.9" height="4.17711934"></rect>
                <rect id="Rectangle-path" fill="#232323" x="70.4765" y="66.8921481" width="3.9" height="4.17711934"></rect>
                <rect id="Rectangle-path" fill="#FFFFFF" x="70.4765" y="73.1575761" width="3.9" height="4.17711934"></rect>
                <rect id="Rectangle-path" fill="#232323" x="70.4765" y="79.1621852" width="3.9" height="4.17711934"></rect>
                <rect id="Rectangle-path" fill="#FFFFFF" x="70.4765" y="85.4276132" width="3.9" height="4.17711934"></rect>
                <rect id="Rectangle-path" fill="#232323" x="70.4765" y="91.4322222" width="3.9" height="4.17711934"></rect>
                <rect id="Rectangle-path" fill="#FFFFFF" x="70.4765" y="97.4365802" width="3.9" height="3.91604938"></rect>
                <rect id="Rectangle-path" fill="#232323" x="70.4765" y="103.440938" width="3.9" height="4.17711934"></rect>
                <rect id="Rectangle-path" fill="#FFFFFF" x="70.4765" y="109.706617" width="3.9" height="3.91604938"></rect>
                <rect id="Rectangle-path" fill="#FFFFFF" x="70.4765" y="28.5158683" width="3.9" height="3.91604938"></rect>
                <path d="M58.442,113.667852 L16.16075,113.667852 L16.16075,81.3544198 L58.44225,81.3544198 L58.44225,113.667852 L58.442,113.667852 Z M20.0605,109.752053 L54.54225,109.752053 L54.54225,85.2704691 L20.0605,85.2704691 L20.0605,109.752053 Z" id="Shape" fill="#232323"></path>
                <rect id="Rectangle-path" fill="#36C9A3" x="23.94025" y="89.6047325" width="6.23975" height="3.91604938"></rect>
                <rect id="Rectangle-path" fill="#FAEDD6" x="23.94025" y="95.6090905" width="16.3795" height="3.91604938"></rect>
                <rect id="Rectangle-path" fill="#36C9A3" x="42.39725" y="95.6090905" width="8.05975" height="3.91604938"></rect>
                <rect id="Rectangle-path" fill="#36C9A3" x="23.94025" y="101.6137" width="4.16" height="3.91604938"></rect>
                <rect id="Rectangle-path" fill="#FA004B" x="30.18" y="101.6137" width="4.16" height="3.91604938"></rect>
                <rect id="Rectangle-path" fill="#36C9A3" x="36.15725" y="101.6137" width="4.16" height="3.91604938"></rect>
                <rect id="Rectangle-path" fill="#FA004B" x="42.39725" y="101.6137" width="4.16" height="3.91604938"></rect>
                <path d="M127.12475,20.5025267 L109.8,20.5025267 C111.7755,18.3466914 112.98425,15.4721605 112.98425,12.3184856 C112.98425,5.64639095 107.5785,0.218395062 100.93375,0.218395062 L82.753,0.218395062 C78.52675,0.218395062 74.80425,2.41615226 72.6525,5.73123868 C70.50075,2.41590123 66.7785,0.218395062 62.55225,0.218395062 L46.3915,0.218395062 C39.74675,0.218395062 34.341,5.64639095 34.341,12.3184856 C34.341,15.4719095 35.54975,18.3464403 37.52525,20.5025267 L0,20.5025267 L0,40.6455802 L101.004,40.6455802 L101.004,52.8862469 L104.904,52.8862469 L104.904,40.6455802 L127.12475,40.6455802 L127.12475,20.5025267 Z M82.753,4.13444444 L100.93375,4.13444444 C105.428,4.13444444 109.08425,7.80574074 109.08425,12.3184856 C109.08425,16.8312305 105.428,20.5025267 100.93375,20.5025267 L94.2985,20.5025267 L90.8335,20.5025267 L76.69275,20.5025267 L74.6025,20.5025267 L74.6025,12.3184856 C74.6025,7.80574074 78.25875,4.13444444 82.753,4.13444444 Z M70.47775,34.5199753 L70.47775,36.7295309 L62.158,36.7295309 L62.158,24.4183251 L70.47775,24.4183251 L70.47775,26.4268066 L74.37775,26.4268066 L74.37775,24.4183251 L74.60275,24.4183251 L76.693,24.4183251 L82.6975,24.4183251 L82.6975,36.7295309 L74.37775,36.7295309 L74.37775,34.5199753 L70.47775,34.5199753 Z M38.24125,12.3184856 C38.24125,7.80574074 41.8975,4.13444444 46.39175,4.13444444 L62.5525,4.13444444 C67.04675,4.13444444 70.70275,7.80574074 70.70275,12.3184856 L70.70275,20.5025267 L46.39175,20.5025267 C41.8975,20.5025267 38.24125,16.8312305 38.24125,12.3184856 Z M3.9,24.4185761 L46.39175,24.4185761 L58.258,24.4185761 L58.258,36.7297819 L3.9,36.7297819 L3.9,24.4185761 Z M86.59725,36.7297819 L86.59725,24.4185761 L90.83325,24.4185761 L94.29825,24.4185761 C97.99575,24.4185761 101.004,27.4392058 101.004,31.1519218 L101.004,36.7297819 L86.59725,36.7297819 Z M123.225,36.7297819 L104.904,36.7297819 L104.904,31.1519218 C104.904,28.5997119 104.0045,26.2548519 102.508,24.4185761 L123.22475,24.4185761 L123.22475,36.7297819 L123.225,36.7297819 Z" id="Shape" fill="#232323"></path>
                <path d="M123.79875,63.7030782 C122.29525,62.193642 120.622,61.0928807 118.8365,60.4216296 L118.8365,42.874214 L114.9365,42.874214 L114.9365,59.6522263 C114.715,59.6459506 114.4925,59.6454486 114.269,59.6512222 C110.89475,59.7395844 107.54675,61.2844156 104.84125,64.0010494 L104.7965,64.0459835 L104.7965,60.8875391 L100.8965,60.8875391 L100.8965,63.4899547 C98.26825,61.0921276 94.94825,59.7345638 91.46975,59.6512222 C88.257,59.5691358 85.19625,60.6016173 82.697,62.568177 L82.697,42.873963 L78.797,42.873963 L78.797,67.3113663 C76.69025,71.4357695 76.691,76.372251 78.797,80.4966543 L78.797,117.865556 L74.377,117.865556 L74.377,115.710724 L70.477,115.710724 L70.477,117.865556 L66.317,117.865556 L66.317,42.873963 L62.417,42.873963 L62.417,117.865556 L11.98025,117.865556 L11.98025,42.7446831 L8.08025,42.7446831 L8.08025,121.781605 L119.0445,121.781605 L119.0445,88.9924733 L123.79875,84.1051934 C129.40025,78.4798889 129.40025,69.3276296 123.79875,63.7030782 Z M115.1445,117.865305 L82.6975,117.865305 L82.6975,85.3540617 L103.17325,105.307588 L115.14475,93.0014033 L115.14475,117.865305 L115.1445,117.865305 Z M121.025,81.3524115 L115.172,87.3688189 L115.14475,87.3688189 L103.09975,99.77893 L84.164,81.3258025 C83.5945,80.7524527 83.10775,80.127642 82.69775,79.4681893 L82.69775,79.4681893 L82.51275,79.1614321 C80.202,75.1427119 80.75475,69.9054979 84.17425,66.4716749 C86.105,64.5327284 88.66425,63.5017531 91.37775,63.5657654 C94.09025,63.6307819 96.68125,64.7684444 98.67425,66.7696461 L103.13675,71.2505103 L107.5995,66.7696461 C109.624,64.7365638 111.96575,63.6285226 114.37125,63.5655144 C116.774,63.5020041 119.08525,64.5071235 121.04125,66.4716749 C125.12225,70.5697202 125.12225,77.2377984 121.025,81.3524115 Z" id="Shape" fill="#232323"></path>
            </g>
        </g>
    </g>
</svg>