<?xml version="1.0" encoding="UTF-8"?>
<svg width="128px" height="128px" viewBox="0 0 128 128" version="1.1" xmlns="http://www.w3.org/2000/svg" xmlns:xlink="http://www.w3.org/1999/xlink">
    <!-- Generator: Sketch 43.2 (39069) - http://www.bohemiancoding.com/sketch -->
    <title>smartphone-1</title>
    <desc>Created with Sketch.</desc>
    <defs></defs>
    <g id="Page-1" stroke="none" stroke-width="1" fill="none" fill-rule="evenodd">
        <g id="50-Valentine's-Day-Element-Icons" transform="translate(-555.000000, -2317.000000)" fill-rule="nonzero">
            <g id="smartphone-1" transform="translate(555.000000, 2317.000000)">
                <rect id="Rectangle-path" fill="#FAEDD6" x="27.97025" y="13.9585" width="72.05875" height="96.08"></rect>
                <polygon id="Shape" fill="#FFFFFF" points="70.005 63.99975 126.0515 63.99975 126.0515 27.97 70.005 27.97 70.005 41.98175 66.00175 45.985 70.005 49.98825"></polygon>
                <polygon id="Shape" fill="#FFFFFF" points="57.995 94.025 1.9485 94.025 1.9485 59.9965 57.995 59.9965 57.995 73.0075 61.99825 77.01075 57.995 81.014"></polygon>
                <rect id="Rectangle-path" fill="#FA004B" x="27.97025" y="1.9485" width="72.05875" height="12.01075"></rect>
                <rect id="Rectangle-path" fill="#FA004B" x="27.97025" y="110.039" width="72.05875" height="16.01425"></rect>
                <rect id="Rectangle-path" fill="#36C9A3" x="61.7445" y="11.86125" width="4.41675" height="3.897"></rect>
                <rect id="Rectangle-path" fill="#36C9A3" x="67.97725" y="11.86125" width="3.897" height="3.897"></rect>
                <rect id="Rectangle-path" fill="#36C9A3" x="56.029" y="11.86125" width="3.897" height="3.897"></rect>
                <polygon id="Shape" fill="#232323" points="26.0215 0 26.0215 55.99275 29.9185 55.99275 29.9185 15.75825 53.94925 15.75825 53.94925 11.86125 29.9185 11.86125 29.9185 3.897 98.0815 3.897 98.0815 11.86125 74.21375 11.86125 74.21375 15.75825 98.0815 15.75825 98.0815 23.96675 101.9785 23.96675 101.9785 0"></polygon>
                <path d="M98.0815,107.988 L29.9185,107.988 L29.9185,98.02825 L26.0215,98.02825 L26.0215,128 L101.9785,128 L101.9785,66.00175 L98.0815,66.00175 L98.0815,107.988 L98.0815,107.988 Z M29.9185,124.103 L29.9185,111.885 L98.0815,111.885 L98.0815,124.103 L29.9185,124.103 L29.9185,124.103 Z" id="Shape" fill="#232323"></path>
                <rect id="Rectangle-path" fill="#36C9A3" x="33.94575" y="116.30025" width="11.951" height="3.897"></rect>
                <rect id="Rectangle-path" fill="#36C9A3" x="82.0065" y="116.30025" width="11.951" height="3.897"></rect>
                <rect id="Rectangle-path" fill="#FFFFFF" x="61.7445" y="116.30025" width="4.41675" height="3.897"></rect>
                <path d="M128,65.9485 L68.0565,65.9485 L68.0565,50.7955 L63.24625,45.985 L68.0565,41.1745 L68.0565,26.0215 L128,26.0215 L128,65.9485 Z M71.9535,62.05125 L124.103,62.05125 L124.103,29.9185 L71.9535,29.9185 L71.9535,42.7885 L68.7575,45.98475 L71.9535,49.181 L71.9535,62.05125 L71.9535,62.05125 Z" id="Shape" fill="#232323"></path>
                <path d="M59.9435,95.97325 L0,95.97325 L0,58.04825 L59.9435,58.04825 L59.9435,72.20075 L64.754,77.01125 L59.9435,81.82175 L59.9435,95.97325 L59.9435,95.97325 Z M3.897,92.07625 L56.0465,92.07625 L56.0465,80.207 L59.24275,77.01075 L56.0465,73.8145 L56.0465,61.945 L3.897,61.945 L3.897,92.07625 Z" id="Shape" fill="#232323"></path>
                <rect id="Rectangle-path" fill="#FA004B" x="78.1095" y="33.94575" width="17.92625" height="3.897"></rect>
                <path d="M79.31975,52.62425 C80.055,51.889 81.247,51.889 81.98225,52.62425 L82.0215,52.6635 C82.75675,51.92825 83.94875,51.92825 84.684,52.6635 C85.41925,53.39875 85.41925,54.59075 84.684,55.326 L82.0215,57.9885 L79.31975,55.28675 C78.58475,54.5515 78.58475,53.3595 79.31975,52.62425 Z" id="Shape" fill="#FA004B"></path>
                <path d="M23.27325,82.649 C24.0085,81.91375 25.2005,81.91375 25.93575,82.649 L25.975,82.68825 C26.71025,81.953 27.90225,81.953 28.6375,82.68825 C29.37275,83.4235 29.37275,84.6155 28.6375,85.35075 L25.975,88.0135 L23.27325,85.31175 C22.538,84.5765 22.538,83.38425 23.27325,82.649 Z" id="Shape" fill="#FA004B"></path>
                <path d="M33.28175,82.649 C34.017,81.91375 35.209,81.91375 35.94425,82.649 L35.9835,82.68825 C36.71875,81.953 37.91075,81.953 38.646,82.68825 C39.38125,83.4235 39.38125,84.6155 38.646,85.35075 L35.9835,88.01325 L33.28175,85.3115 C32.5465,84.5765 32.5465,83.38425 33.28175,82.649 Z" id="Shape" fill="#FA004B"></path>
                <path d="M43.29,82.649 C44.02525,81.91375 45.21725,81.91375 45.9525,82.649 L45.99175,82.68825 C46.727,81.953 47.919,81.953 48.65425,82.68825 C49.3895,83.4235 49.3895,84.6155 48.65425,85.35075 L45.99175,88.01325 L43.29,85.3115 C42.55475,84.5765 42.55475,83.38425 43.29,82.649 Z" id="Shape" fill="#FA004B"></path>
                <path d="M89.32825,52.62425 C90.0635,51.889 91.2555,51.889 91.99075,52.62425 L92.03,52.6635 C92.76525,51.92825 93.95725,51.92825 94.6925,52.6635 C95.42775,53.39875 95.42775,54.59075 94.6925,55.326 L92.03,57.9885 L89.32825,55.28675 C88.593,54.5515 88.593,53.3595 89.32825,52.62425 Z" id="Shape" fill="#FA004B"></path>
                <path d="M99.33625,52.62425 C100.0715,51.889 101.2635,51.889 101.99875,52.62425 L102.038,52.6635 C102.77325,51.92825 103.96525,51.92825 104.7005,52.6635 C105.43575,53.39875 105.43575,54.59075 104.7005,55.326 L102.038,57.9885 L99.33625,55.28675 C98.601,54.5515 98.601,53.3595 99.33625,52.62425 Z" id="Shape" fill="#FA004B"></path>
                <path d="M109.34475,52.62425 C110.08,51.889 111.272,51.889 112.00725,52.62425 L112.0465,52.6635 C112.78175,51.92825 113.97375,51.92825 114.709,52.6635 C115.44425,53.39875 115.44425,54.59075 114.709,55.326 L112.0465,57.9885 L109.34475,55.28675 C108.6095,54.5515 108.6095,53.3595 109.34475,52.62425 Z" id="Shape" fill="#FA004B"></path>
                <rect id="Rectangle-path" fill="#36C9A3" x="99.93275" y="33.94575" width="3.897" height="3.897"></rect>
                <rect id="Rectangle-path" fill="#232323" x="78.1095" y="41.9995" width="35.85275" height="3.897"></rect>
                <rect id="Rectangle-path" fill="#36C9A3" x="10.04275" y="66.16125" width="14.02925" height="3.897"></rect>
                <rect id="Rectangle-path" fill="#FA004B" x="27.97025" y="66.16125" width="4.15675" height="3.897"></rect>
                <rect id="Rectangle-path" fill="#FA004B" x="10.04275" y="74.2125" width="7.794" height="3.897"></rect>
                <rect id="Rectangle-path" fill="#36C9A3" x="21.99475" y="74.2125" width="23.90175" height="3.897"></rect>
                <rect id="Rectangle-path" fill="#232323" x="10.04275" y="82.26625" width="7.794" height="3.897"></rect>
            </g>
        </g>
    </g>
</svg>