<?xml version="1.0" encoding="UTF-8"?>
<svg width="85px" height="128px" viewBox="0 0 85 128" version="1.1" xmlns="http://www.w3.org/2000/svg" xmlns:xlink="http://www.w3.org/1999/xlink">
    <!-- Generator: Sketch 43.2 (39069) - http://www.bohemiancoding.com/sketch -->
    <title>champagne</title>
    <desc>Created with Sketch.</desc>
    <defs></defs>
    <g id="Page-1" stroke="none" stroke-width="1" fill="none" fill-rule="evenodd">
        <g id="50-Valentine's-Day-Element-Icons" transform="translate(-1190.000000, -202.000000)" fill-rule="nonzero">
            <g id="champagne" transform="translate(1190.000000, 202.000000)">
                <path d="M70.6978698,96.069 L70.6978698,96.069 L70.6978698,96.069 C62.9601036,88.37675 58.6130325,77.944 58.6130325,67.06525 L58.6130325,54.02075 L82.7824556,54.02075 L82.7824556,67.06525 C82.7827071,77.944 78.4356361,88.37675 70.6978698,96.069 Z" id="Shape" fill="#FAEDD6"></path>
                <path d="M14.3021302,96.069 L14.3021302,96.069 L14.3021302,96.069 C6.56436391,88.37675 2.2172929,77.944 2.2172929,67.06525 L2.2172929,54.02075 L26.3869675,54.02075 L26.3869675,67.06525 C26.3869675,77.944 22.0398964,88.37675 14.3021302,96.069 Z" id="Shape" fill="#FAEDD6"></path>
                <ellipse id="Oval" fill="#36C9A3" cx="14.3008728" cy="102.0745" rx="4.02844675" ry="4.00475"></ellipse>
                <ellipse id="Oval" fill="#36C9A3" cx="70.6986243" cy="102.0745" rx="4.02844675" ry="4.00475"></ellipse>
                <rect id="Rectangle-path" fill="#FFFFFF" x="6.17658284" y="60.12775" width="4.21755917" height="3.93075"></rect>
                <rect id="Rectangle-path" fill="#FFFFFF" x="10.3943935" y="64.3205" width="3.69045858" height="3.93075"></rect>
                <rect id="Rectangle-path" fill="#FFFFFF" x="16.4570562" y="74.2785" width="3.69045858" height="3.93075"></rect>
                <rect id="Rectangle-path" fill="#FFFFFF" x="18.3024112" y="58.2935" width="3.95400888" height="3.93075"></rect>
                <rect id="Rectangle-path" fill="#FFFFFF" x="12.239497" y="82.14025" width="4.21755917" height="3.93075"></rect>
                <rect id="Rectangle-path" fill="#FFFFFF" x="8.28548817" y="72.18225" width="3.95400888" height="3.93075"></rect>
                <polygon id="Shape" fill="#232323" points="22.2554142 43.88125 18.3014053 43.88125 18.3014053 38.11625 16.4560503 38.11625 16.4560503 34.1855 22.2554142 34.1855"></polygon>
                <rect id="Rectangle-path" fill="#232323" x="18.3024112" y="45.977" width="3.95400888" height="3.93075"></rect>
                <rect id="Rectangle-path" fill="#FFFFFF" x="62.851213" y="60.12775" width="3.69045858" height="3.93075"></rect>
                <rect id="Rectangle-path" fill="#FFFFFF" x="66.5416716" y="64.3205" width="4.21755917" height="3.93075"></rect>
                <rect id="Rectangle-path" fill="#FFFFFF" x="72.8681361" y="74.2785" width="3.69045858" height="3.93075"></rect>
                <rect id="Rectangle-path" fill="#FFFFFF" x="74.7132396" y="58.2935" width="4.21755917" height="3.93075"></rect>
                <rect id="Rectangle-path" fill="#FFFFFF" x="68.6503254" y="82.14025" width="4.21755917" height="3.93075"></rect>
                <rect id="Rectangle-path" fill="#FFFFFF" x="64.6963166" y="72.18225" width="3.95400888" height="3.93075"></rect>
                <polygon id="Shape" fill="#232323" points="78.6662426 43.88125 74.7122337 43.88125 74.7122337 38.11625 72.8668787 38.11625 72.8668787 34.1855 78.6662426 34.1855"></polygon>
                <rect id="Rectangle-path" fill="#232323" x="74.7132396" y="45.977" width="4.21755917" height="3.93075"></rect>
                <path d="M51.8794231,3.72125 C49.5195414,1.37525 45.693787,1.37525 43.3341568,3.72125 L42.5,4.5505 L41.6655917,3.721 C39.3057101,1.375 35.4802071,1.375 33.1203254,3.721 C30.7604438,6.067 30.7604438,9.87 33.1203254,12.216 L42.238713,22.12675 L51.0452663,13.04525 L51.8796746,12.21575 C54.2393047,9.87025 54.2393047,6.06675 51.8794231,3.72125 Z" id="Shape" fill="#FA004B"></path>
                <path d="M42.2009911,24.99775 L31.6894083,13.57225 C28.5957101,10.46125 28.6070266,5.4285 31.7226036,2.33125 C34.6676775,-0.59675 39.3524852,-0.7665 42.5,1.82125 C45.6472633,-0.7665 50.3323225,-0.59675 53.2773964,2.33125 L53.2773964,2.33125 C56.4040385,5.43975 56.4040385,10.49725 53.2773964,13.6055 L52.4558136,14.42225 L42.2009911,24.99775 Z M37.3932101,3.929 C36.3520858,3.929 35.311213,4.32275 34.5185503,5.11075 C32.9334763,6.6865 32.9334763,9.2505 34.5185503,10.82625 L34.5794083,10.8895 L42.2769379,19.256 L49.6472929,11.656 L50.4817012,10.82625 C52.0667751,9.25025 52.0667751,6.68625 50.4817012,5.11075 C48.8966272,3.53525 46.3179586,3.535 44.7323817,5.11075 L42.500503,7.33025 L40.2681213,5.1105 C39.4754586,4.32275 38.4340828,3.929 37.3932101,3.929 Z" id="Shape" fill="#232323"></path>
                <path d="M0.240414201,67.06525 C0.240414201,78.1255 4.41572485,88.54675 12.0224704,96.554 C9.83887574,97.4485 8.29705621,99.586 8.29705621,102.076 C8.29705621,104.64725 9.94097633,106.844 12.2387426,107.6825 L12.2387426,110.1805 L16.1927515,110.1805 L16.1927515,107.741 C18.5805473,106.95175 20.3079586,104.71125 20.3079586,102.076 C20.3079586,99.58625 18.7661391,97.4485 16.5825444,96.554 C24.1892899,88.54675 28.3646006,78.1255 28.3646006,67.06525 L28.3646006,28.02825 L0.240414201,28.02825 L0.240414201,67.06525 Z M14.3021302,104.115 C13.1709763,104.115 12.2508136,103.20025 12.2508136,102.076 C12.2508136,100.9515 13.1709763,100.03675 14.3021302,100.03675 C15.433284,100.03675 16.3534467,100.9515 16.3534467,102.076 C16.3534467,103.20025 15.433284,104.115 14.3021302,104.115 Z M14.3021302,93.2175 C7.7689497,86.03175 4.1941716,76.8215 4.1941716,67.06525 L4.1941716,55.93575 L24.4098373,55.93575 L24.4098373,67.06525 C24.4100888,76.8215 20.8353107,86.03175 14.3021302,93.2175 Z M24.4100888,31.959 L24.4100888,52.005 L4.19442308,52.005 L4.19442308,31.959 L24.4100888,31.959 L24.4100888,31.959 Z" id="Shape" fill="#232323"></path>
                <polygon id="Shape" fill="#232323" points="16.1925 112.01475 12.2384911 112.01475 12.2384911 124.06925 6.17557692 124.06925 6.17557692 128 22.2554142 128 22.2554142 124.06925 16.1925 124.06925"></polygon>
                <path d="M56.6361538,28.02825 L56.6361538,67.06525 C56.6361538,78.1255 60.8114645,88.54675 68.4182101,96.554 C66.2346154,97.4485 64.6927959,99.586 64.6927959,102.076 C64.6927959,104.653 66.3437574,106.8535 68.649571,107.68775 L68.649571,110.1805 L72.6035799,110.1805 L72.6035799,107.736 C74.9833284,106.942 76.7034467,104.70575 76.7034467,102.076 C76.7034467,99.58625 75.1618787,97.4485 72.9780325,96.554 C80.5847781,88.54675 84.7600888,78.1255 84.7600888,67.06525 L84.7600888,28.02825 L56.6361538,28.02825 Z M70.6981213,104.115 C69.5669675,104.115 68.6468047,103.20025 68.6468047,102.076 C68.6468047,100.9515 69.5669675,100.03675 70.6981213,100.03675 C71.8292751,100.03675 72.7491864,100.9515 72.7491864,102.076 C72.7491864,103.20025 71.8290237,104.115 70.6981213,104.115 Z M80.8055769,67.06525 C80.8055769,76.8215 77.2307988,86.03175 70.6976183,93.21775 C64.1644379,86.03175 60.5896598,76.82175 60.5896598,67.06525 L60.5896598,55.93575 L80.805074,55.93575 L80.805074,67.06525 L80.8055769,67.06525 Z M80.8055769,52.005 L60.5901627,52.005 L60.5901627,31.959 L80.8055769,31.959 L80.8055769,52.005 Z" id="Shape" fill="#232323"></path>
                <polygon id="Shape" fill="#232323" points="72.6033284 112.01475 68.6493195 112.01475 68.6493195 124.06925 62.8502071 124.06925 62.8502071 128 78.9297929 128 78.9297929 124.06925 72.6033284 124.06925"></polygon>
                <rect id="Rectangle-path" fill="#36C9A3" x="58.6334024" y="8.24225" width="4.21755917" height="3.93075"></rect>
                <rect id="Rectangle-path" fill="#36C9A3" x="52.5707396" y="18.1995" width="4.21755917" height="3.93075"></rect>
                <rect id="Rectangle-path" fill="#36C9A3" x="40.4449112" y="29.99175" width="3.95400888" height="3.93075"></rect>
                <rect id="Rectangle-path" fill="#36C9A3" x="40.4449112" y="44.1425" width="3.95400888" height="3.93075"></rect>
                <rect id="Rectangle-path" fill="#36C9A3" x="48.6167308" y="34.18475" width="3.95400888" height="3.93075"></rect>
                <rect id="Rectangle-path" fill="#36C9A3" x="32.5368935" y="34.18475" width="3.95400888" height="3.93075"></rect>
                <rect id="Rectangle-path" fill="#36C9A3" x="64.6963166" y="16.103" width="3.95400888" height="3.93075"></rect>
                <rect id="Rectangle-path" fill="#36C9A3" x="22.2564201" y="8.24225" width="4.21755917" height="3.93075"></rect>
                <rect id="Rectangle-path" fill="#36C9A3" x="28.3193343" y="18.1995" width="4.21755917" height="3.93075"></rect>
                <rect id="Rectangle-path" fill="#36C9A3" x="16.4570562" y="16.103" width="3.69045858" height="3.93075"></rect>
            </g>
        </g>
    </g>
</svg>