<?xml version="1.0" encoding="UTF-8"?>
<svg width="128px" height="128px" viewBox="0 0 128 128" version="1.1" xmlns="http://www.w3.org/2000/svg" xmlns:xlink="http://www.w3.org/1999/xlink">
    <!-- Generator: Sketch 43.2 (39069) - http://www.bohemiancoding.com/sketch -->
    <title>wedding-rings</title>
    <desc>Created with Sketch.</desc>
    <defs></defs>
    <g id="Page-1" stroke="none" stroke-width="1" fill="none" fill-rule="evenodd">
        <g id="50-Valentine's-Day-Element-Icons" transform="translate(-555.000000, -2619.000000)" fill-rule="nonzero">
            <g id="wedding-rings" transform="translate(555.000000, 2619.000000)">
                <path d="M49.892,3.72525 C47.5475,1.38075 43.7465,1.38075 41.40225,3.72525 L39.98725,5.14025 L38.57225,3.72525 C36.22775,1.38075 32.42675,1.38075 30.0825,3.72525 C27.73825,6.06975 27.738,9.87075 30.0825,12.215 L39.98725,22.11975 L49.892,12.215 C52.2365,9.87075 52.2365,6.06975 49.892,3.72525 Z" id="Shape" fill="#FA004B"></path>
                <path d="M97.91725,21.735 C95.57275,19.3905 91.77175,19.3905 89.4275,21.735 L88.0125,23.15 L86.5975,21.735 C84.253,19.3905 80.452,19.3905 78.10775,21.735 C75.76325,24.0795 75.76325,27.8805 78.10775,30.22475 L88.0125,40.1295 L97.91725,30.22475 C100.26175,27.88025 100.26175,24.07925 97.91725,21.735 Z" id="Shape" fill="#FA004B"></path>
                <path d="M69.83125,59.99625 C70.5145,62.54975 70.87875,65.23325 70.87875,68.002 C70.87875,85.06275 57.048,98.8935 39.98725,98.8935 C22.9265,98.8935 9.09575,85.06275 9.09575,68.002 C9.09575,50.941 22.9265,37.1105 39.98725,37.1105 C52,37.1105 62.41075,43.967 67.52025,53.98 L73.48,49.99275 C67.0605,38.07875 54.4695,29.9815 39.987,29.9815 C18.98925,29.982 1.967,47.00425 1.967,68.002 C1.967,88.99975 18.98925,106.02225 39.98725,106.02225 C60.98525,106.02225 78.00725,89 78.00725,68.002 C78.00725,64.538 77.544,61.182 76.676,57.993 L69.83125,59.99625 Z" id="Shape" fill="#FAEDD6"></path>
                <path d="M51.8805,104.0145 C58.19925,117.04675 71.55625,126.033 87.01225,126.033 C108.56275,126.033 126.033,108.56275 126.033,87.01225 C126.033,65.46175 108.56275,47.9915 87.01225,47.9915 C65.46175,47.9915 47.9915,65.46175 47.9915,87.01225 C47.9915,90.832 48.5405,94.5235 49.5635,98.01225 L56.087,94.02825 C55.57725,91.7715 55.308,89.423 55.308,87.012 C55.308,69.502 69.5025,55.30775 87.01225,55.30775 C104.522,55.30775 118.7165,69.50225 118.7165,87.012 C118.7165,104.52175 104.522,118.71625 87.01225,118.71625 C74.139,118.71625 63.05775,111.04375 58.09175,100.02225" id="Shape" fill="#36C9A3"></path>
                <path d="M87.01225,46.0245 C82.68325,46.0245 78.50975,46.7015 74.5895,47.95075 C67.437,35.6215 54.2955,28.01475 39.98725,28.01475 C17.938,28.015 0,45.953 0,68.002 C0,90.051 17.938,107.98925 39.98725,107.98925 C43.78075,107.98925 47.4525,107.45825 50.93225,106.4665 C54.243,112.59775 59.06125,117.796 64.9605,121.56775 C71.541,125.7755 79.1665,127.9995 87.01225,127.9995 C109.61325,127.9995 128,109.6125 128,87.01175 C128,64.41175 109.613,46.0245 87.01225,46.0245 Z M3.934,68.002 C3.934,48.122 20.10725,31.94875 39.98725,31.94875 C52.66375,31.94875 64.322,38.574 70.84275,49.3515 C69.85725,49.77625 68.89175,50.23925 67.9475,50.7375 C61.97975,41.05625 51.49875,35.1435 39.98725,35.1435 C21.86925,35.1435 7.129,49.88375 7.129,68.002 C7.129,86.12025 21.86925,100.8605 39.98725,100.8605 C58.1055,100.8605 72.84575,86.12025 72.84575,68.002 C72.84575,65.729 72.60975,63.47 72.14975,61.263 C73.09975,60.7125 74.08325,60.2145 75.09525,59.77 C75.72175,62.45525 76.0405,65.218 76.0405,68.002 C76.0405,87.882 59.867,104.05525 39.987,104.05525 C20.107,104.05525 3.934,87.882 3.934,68.002 Z M64.55925,52.739 C53.40475,60.07125 46.02425,72.695 46.02425,87.01225 C46.02425,90.07025 46.36525,93.10175 47.03075,96.05725 C44.775,96.62375 42.41575,96.9265 39.98675,96.9265 C24.03775,96.9265 11.0625,83.951 11.0625,68.002 C11.0625,52.053 24.038,39.0775 39.98675,39.0775 C50.09425,39.0775 59.2985,44.25575 64.55925,52.739 Z M57.27475,87.01225 C57.27475,77.5675 61.70125,69.138 68.588,63.68675 C68.80075,65.11 68.91175,66.5525 68.91175,68.00225 C68.91175,77.356 64.4475,85.6855 57.539,90.97575 C57.3645,89.66575 57.27475,88.3405 57.27475,87.01225 Z M78.815,58.42425 C81.41975,57.67625 84.17,57.27475 87.01225,57.27475 C103.4095,57.27475 116.74975,70.61475 116.74975,87.012 C116.74975,103.40925 103.4095,116.7495 87.01225,116.7495 C76.33,116.7495 66.514,110.9895 61.243,101.857 C72.48725,94.772 79.97475,82.246 79.97475,68.00225 C79.9745,64.761 79.582,61.5445 78.815,58.42425 Z M87.01225,124.066 C79.919,124.066 73.02625,122.05625 67.07975,118.254 C61.932,114.96225 57.6945,110.47075 54.71375,105.17925 C55.771,104.759 56.805,104.29325 57.81575,103.78775 C63.77875,114.14775 74.90375,120.68375 87.01225,120.68375 C105.57875,120.68375 120.68375,105.57875 120.68375,87.01225 C120.68375,68.44575 105.57875,53.341 87.01225,53.341 C68.44575,53.341 53.34075,68.44575 53.34075,87.01225 C53.34075,89.13825 53.5425,91.25925 53.936,93.3335 C52.9215,93.89425 51.87,94.39575 50.7865,94.83375 C50.237,92.2755 49.9585,89.65525 49.9585,87.0125 C49.9585,66.581 66.58075,49.95875 87.01225,49.95875 C107.44375,49.95875 124.066,66.581 124.066,87.0125 C124.066,107.44375 107.44375,124.066 87.01225,124.066 Z" id="Shape" fill="#232323"></path>
                <path d="M51.283,2.3345 L51.283,2.3345 C49.7775,0.829 47.776,0 45.64725,0 C43.51825,0 41.51675,0.829 40.01175,2.33425 L39.98725,2.3585 L39.96325,2.33425 C36.856,-0.77325 31.7995,-0.77325 28.6915,2.33425 C25.58425,5.44175 25.58425,10.498 28.6915,13.60575 L37.1225,22.03675 L35.937,22.03675 L35.937,25.97075 L44.06725,25.97075 L44.06725,22.03675 L42.8515,22.03675 L51.283,13.60575 C54.3905,10.49825 54.3905,5.442 51.283,2.3345 Z M48.50125,10.824 L39.98725,19.338 L31.4735,10.824 C29.9,9.2505 29.9,6.6895 31.47325,5.116 C32.26025,4.32925 33.29375,3.93575 34.3275,3.93575 C35.36075,3.93575 36.39475,4.32925 37.1815,5.116 L39.98725,7.92175 L42.79325,5.116 C43.5555,4.3535 44.569,3.934 45.64725,3.934 C46.72525,3.934 47.739,4.354 48.50125,5.116 C50.07475,6.69 50.07475,9.2505 48.50125,10.824 Z" id="Shape" fill="#232323"></path>
                <rect id="Rectangle-path" fill="#36C9A3" x="45.90475" y="22.03825" width="4.19625" height="3.934"></rect>
                <rect id="Rectangle-path" fill="#36C9A3" x="29.9065" y="22.03825" width="4.19625" height="3.934"></rect>
                <path d="M99.3085,20.344 L99.3085,20.344 C96.201,17.2365 91.14425,17.2365 88.0365,20.344 L88.01275,20.36825 L87.9885,20.344 C86.483,18.8385 84.48175,18.0095 82.35275,18.0095 C80.224,18.0095 78.22225,18.8385 76.717,20.344 C73.60975,23.4515 73.60975,28.50775 76.71725,31.6155 L85.2355,40.13375 L83.9325,40.13375 L83.9325,44.06775 L92.06275,44.06775 L92.06275,40.13375 L90.7905,40.13375 L99.30875,31.6155 C102.41575,28.508 102.41575,23.4515 99.3085,20.344 Z M96.5265,28.83375 L88.01275,37.3475 L79.49875,28.83375 C77.92525,27.26025 77.92525,24.69925 79.4985,23.12575 C80.261,22.36325 81.2745,21.94375 82.35275,21.94375 C83.431,21.94375 84.4445,22.36375 85.207,23.126 L88.01275,25.93175 L90.81825,23.126 C92.3925,21.5525 94.953,21.5525 96.5265,23.126 C98.10025,24.6995 98.10025,27.26 96.5265,28.83375 Z" id="Shape" fill="#232323"></path>
                <rect id="Rectangle-path" fill="#FAEDD6" x="93.897" y="40.13475" width="4.19625" height="3.934"></rect>
                <rect id="Rectangle-path" fill="#FAEDD6" x="77.89875" y="40.13475" width="4.19625" height="3.934"></rect>
            </g>
        </g>
    </g>
</svg>