<?xml version="1.0" encoding="UTF-8"?>
<svg width="128px" height="128px" viewBox="0 0 128 128" version="1.1" xmlns="http://www.w3.org/2000/svg" xmlns:xlink="http://www.w3.org/1999/xlink">
    <!-- Generator: Sketch 43.2 (39069) - http://www.bohemiancoding.com/sketch -->
    <title>cupid</title>
    <desc>Created with Sketch.</desc>
    <defs></defs>
    <g id="Page-1" stroke="none" stroke-width="1" fill="none" fill-rule="evenodd">
        <g id="50-Valentine's-Day-Element-Icons" transform="translate(-214.000000, -806.000000)" fill-rule="nonzero">
            <g id="cupid" transform="translate(214.000000, 806.000000)">
                <rect id="Rectangle-path" fill="#FAEDD6" x="79.711" y="43.98775" width="12.008" height="40.02625"></rect>
                <rect id="Rectangle-path" fill="#36C9A3" x="77.78375" y="38.0835" width="15.86025" height="5.805"></rect>
                <rect id="Rectangle-path" fill="#36C9A3" x="77.7785" y="84.014" width="15.942" height="6.004"></rect>
                <path d="M110.1955,56.2165 C108.2415,58.1705 108.2415,61.33825 110.1955,63.2925 L110.90325,64.00025 L110.1955,64.708 C108.2415,66.662 108.2415,69.82975 110.1955,71.784 C112.14925,73.73775 115.31725,73.738 117.2715,71.784 L125.05475,64.00075 L117.2715,56.2175 C115.31725,54.26275 112.1495,54.26275 110.1955,56.2165 Z" id="Shape" fill="#FA004B"></path>
                <path d="M93.72,39.94125 L93.72,36.02425 L81.61,36.02425 C80.59475,19.29975 66.66625,6.00425 49.69075,6.00425 L36.68225,6.00425 C36.10675,6.00425 35.63875,5.53625 35.63875,4.96075 C35.63875,4.38525 36.1065,3.917 36.682,3.917 L41.68525,3.917 L41.68525,0 L36.682,0 C33.94675,0 31.7215,2.225 31.7215,4.9605 C31.7215,6.3325 32.282,7.57575 33.18525,8.47475 L3.4395,63.99975 L33.185,119.52525 C32.28175,120.424 31.72125,121.66725 31.72125,123.0395 C31.72125,125.77475 33.94625,128 36.68175,128 L41.685,128 L41.685,124.083 L36.68175,124.083 C36.10625,124.083 35.63825,123.615 35.63825,123.0395 C35.63825,122.464 36.10625,121.996 36.68175,121.996 L49.69025,121.996 C66.66575,121.996 80.5945,108.7005 81.6095,91.976 L93.7195,91.976 L93.7195,88.059 L77.75175,88.059 L77.75175,90.0175 C77.75175,105.49075 65.16325,118.079 49.69025,118.079 L36.85375,118.079 L7.883,63.99975 L36.85375,9.921 L49.6905,9.921 C65.16375,9.921 77.752,22.5095 77.752,37.9825 L77.752,39.941 L93.72,39.941 L93.72,39.94125 Z" id="Shape" fill="#232323"></path>
                <rect id="Rectangle-path" fill="#FA004B" x="0.176" y="62.173" width="10.18425" height="3.917"></rect>
                <path d="M96.27275,62.172 L93.67725,62.172 L93.67725,42.028 L77.75225,42.028 L77.75225,62.172 L12.44925,62.172 L12.44925,66.089 L77.7525,66.089 L77.7525,85.97175 L93.6775,85.97175 L93.6775,66.089 L96.273,66.089 L96.273,62.172 L96.27275,62.172 Z M89.76025,55.90475 L86.3495,55.90475 L86.3495,59.82175 L89.76025,59.82175 L89.76025,68.178 L86.3495,68.178 L86.3495,72.095 L89.76025,72.095 L89.76025,82.05475 L81.66925,82.05475 L81.66925,79.92875 L86.35,79.92875 L86.35,76.01175 L81.6695,76.01175 L81.6695,52.24875 L86.35,52.24875 L86.35,48.33175 L81.6695,48.33175 L81.6695,45.94475 L89.7605,45.94475 L89.7605,55.90475 L89.76025,55.90475 Z" id="Shape" fill="#232323"></path>
                <rect id="Rectangle-path" fill="#36C9A3" x="98.361" y="62.173" width="3.917" height="3.917"></rect>
                <path d="M118.65625,54.83175 C117.34125,53.51675 115.59325,52.7925 113.7335,52.7925 C111.87375,52.7925 110.12575,53.5165 108.81075,54.83175 C106.829,56.81325 106.3,59.7005 107.2115,62.172 L104.3675,62.172 L104.3675,66.089 L107.11975,66.089 C106.338,68.5005 106.898,71.256 108.81025,73.168 C110.125,74.483 111.87325,75.20725 113.73275,75.20725 L113.73275,75.20725 C115.59225,75.20725 117.3405,74.48325 118.6555,73.168 L127.8235,64 L118.65625,54.83175 Z M115.8865,70.3985 C114.69925,71.5855 112.76775,71.5855 111.5805,70.3985 C110.3935,69.2115 110.3935,67.2795 111.5805,66.0925 L113.673,64 L111.58075,61.9075 C110.39375,60.7205 110.39375,58.7885 111.58075,57.6015 C112.17425,57.008 112.954,56.711 113.73375,56.711 C114.5135,56.711 115.29325,57.008 115.88675,57.6015 L122.28525,64 L115.8865,70.3985 Z" id="Shape" fill="#232323"></path>
                <rect id="Rectangle-path" fill="#FA004B" x="44.3065" y="0.2835" width="3.917" height="3.917"></rect>
                <rect id="Rectangle-path" fill="#FA004B" x="44.3065" y="124.06125" width="3.917" height="3.917"></rect>
                <polygon id="Shape" fill="#36C9A3" points="17.23475 73.1805 14.10125 70.83025 19.22375 63.99975 14.10125 57.16975 17.23475 54.8195 24.12 63.99975"></polygon>
                <polygon id="Shape" fill="#36C9A3" points="25.24 73.1805 22.1065 70.83025 27.229 63.99975 22.1065 57.16975 25.24 54.8195 32.12525 63.99975"></polygon>
            </g>
        </g>
    </g>
</svg>