<?xml version="1.0" encoding="UTF-8"?>
<svg width="128px" height="90px" viewBox="0 0 128 90" version="1.1" xmlns="http://www.w3.org/2000/svg" xmlns:xlink="http://www.w3.org/1999/xlink">
    <!-- Generator: Sketch 43.2 (39069) - http://www.bohemiancoding.com/sketch -->
    <title>heart-1</title>
    <desc>Created with Sketch.</desc>
    <defs></defs>
    <g id="Page-1" stroke="none" stroke-width="1" fill="none" fill-rule="evenodd">
        <g id="50-Valentine's-Day-Element-Icons" transform="translate(-555.000000, -1127.000000)" fill-rule="nonzero">
            <g id="heart-1" transform="translate(555.000000, 1127.000000)">
                <path d="M99.3724133,2.28569832 C93.0053489,2.28569832 87.8688811,7.18114525 87.8688811,13.5965363 L87.8688811,24.1182402 L97.8306745,32.504581 L101.825372,32.504581 C105.134659,32.504581 107.689669,29.4651955 107.689669,26.130419 L107.689669,22.5191061 L109.814768,22.5191061 C113.124055,22.5191061 115.774628,19.4022905 115.774628,16.0680168 L115.774628,12.0431564 C121.251431,12.0431564 125.793809,8.32927374 125.793809,2.28569832 L99.3724133,2.28569832 L99.3724133,2.28569832 Z" id="Shape" fill="#FAEDD6"></path>
                <path d="M28.3780741,2.28569832 C34.7451384,2.28569832 39.8816062,7.18114525 39.8816062,13.5965363 L39.8816062,24.1182402 L29.9198129,32.504581 L25.925115,32.504581 C22.6158285,32.504581 20.0608187,29.4651955 20.0608187,26.130419 L20.0608187,22.5191061 L17.9357193,22.5191061 C14.6264327,22.5191061 11.9758596,19.4022905 11.9758596,16.0680168 L11.9758596,12.0431564 C5.97732554,12.0431564 1.95667836,8.32927374 1.95667836,2.28569832 L28.3780741,2.28569832 L28.3780741,2.28569832 Z" id="Shape" fill="#FAEDD6"></path>
                <path d="M93.8881248,28.1473743 C86.0878596,20.2882123 73.4408109,20.2882123 65.6407953,28.1473743 C65.5669396,28.2217877 64.7857154,29.0089106 63.5221832,30.2819832 C62.6780819,29.4315084 62.1693255,28.9189106 62.1099415,28.8590782 C54.3096764,20.9999162 41.6628772,20.9999162 33.8626121,28.8590782 C26.062347,36.7182402 26.062347,49.4607821 33.8626121,57.3196927 C33.9222456,57.3797765 63.5224327,87.2034637 63.5224327,87.2034637 L93.8886238,56.6079888 C101.68839,48.7488268 101.68839,36.0065363 93.8881248,28.1473743 Z" id="Shape" fill="#FA004B"></path>
                <path d="M99.3724133,0.0100558659 C91.9369357,0.0100558659 85.8877505,6.1049162 85.8877505,13.5965363 L85.8877505,21.1675978 C78.4560156,19.0030726 70.1035789,20.8636592 64.2572476,26.7538827 L63.5216842,27.495 L63.4924912,27.4655866 C57.6464094,21.5753631 49.2942222,19.7150279 41.8622378,21.8793017 L41.8622378,13.5965363 C41.8622378,6.1051676 35.8130526,0.0100558659 28.377575,0.0100558659 L0,0.0100558659 L0,1.98075419 C0,8.61586592 5.35753606,14.0138547 11.942924,14.0138547 L21.9299181,14.0138547 L21.9299181,10.0722067 L11.942924,10.0722067 C8.18900585,10.0722067 5.02842885,7.46396648 4.15288889,3.95145251 L28.3778246,3.95145251 C33.6562651,3.95145251 37.9503782,8.27798883 37.9503782,13.5962849 L37.9503782,23.445 C35.9789786,24.4656704 34.1285926,25.803352 32.4790643,27.4650838 C31.625731,28.3248603 30.8614737,29.2404469 30.1785575,30.1967598 L25.924616,30.1967598 C23.6992125,30.1967598 21.888499,28.3726257 21.888499,26.1301676 L17.9763899,26.1301676 C17.9763899,30.5459497 21.5419259,34.1384078 25.924616,34.1384078 L27.9416764,34.1384078 C24.3871189,42.2451955 25.8956725,52.0793296 32.4793138,58.712933 L63.5221832,89.9901955 L64.905232,88.5967039 C66.1423158,87.3502793 95.1988148,58.0743855 95.271423,58.0012291 C101.663189,51.5612011 103.275041,42.102905 100.110971,34.1384078 L101.82637,34.1384078 C106.208811,34.1384078 109.774596,30.5459497 109.774596,26.1301676 L105.862487,26.1301676 C105.862487,28.3726257 104.052023,30.1967598 101.82637,30.1967598 L98.0639688,30.1967598 C97.2650292,28.9792458 96.334846,27.8243296 95.271922,26.7533799 C93.6226433,25.091648 91.7722573,23.7537151 89.8006082,22.7332961 L89.8006082,13.5962849 C89.8006082,8.27824022 94.0947212,3.95145251 99.3731618,3.95145251 L123.598097,3.95145251 C122.722558,7.46396648 119.561981,10.0722067 115.808062,10.0722067 L105.820819,10.0722067 L105.820819,14.0138547 L115.807813,14.0138547 C122.393201,14.0138547 127.750737,8.61586592 127.750737,1.98075419 L127.750737,0.0100558659 L99.3724133,0.0100558659 L99.3724133,0.0100558659 Z M92.504078,55.2152514 C92.3987836,55.3215922 69.4486082,78.4450559 63.5224327,84.4159777 L35.2454113,55.9262011 C28.2201326,48.8478771 28.2201326,37.3308939 35.2454113,30.2525698 C38.7578012,26.7136592 43.372039,24.9438268 47.9857778,24.9438268 C52.6000156,24.9438268 57.2137544,26.7134078 60.7266433,30.2525698 L63.5221832,33.0692179 L67.0238441,29.5411173 C74.0491228,22.4627933 85.4800468,22.4627933 92.505076,29.5411173 C99.5301053,36.6194413 99.5301053,48.1361732 92.504078,55.2152514 Z" id="Shape" fill="#232323"></path>
                <path d="M109.815267,20.1346089 L99.8282729,20.1346089 L99.8282729,24.076257 L109.815267,24.076257 C114.197957,24.076257 117.763493,20.4837989 117.763493,16.0680168 L113.851384,16.0680168 C113.851634,18.3104749 112.04092,20.1346089 109.815267,20.1346089 Z" id="Shape" fill="#232323"></path>
                <path d="M27.9222144,20.1346089 L17.9352203,20.1346089 C15.7095673,20.1346089 13.8991033,18.3104749 13.8991033,16.0680168 L9.98699415,16.0680168 C9.98699415,20.4835475 13.5525302,24.076257 17.9352203,24.076257 L27.9222144,24.076257 L27.9222144,20.1346089 Z" id="Shape" fill="#232323"></path>
                <path d="M91.7972086,42.2268436 L87.8850994,42.2268436 C87.8850994,37.7597765 84.2177622,34.1384078 79.783922,34.1384078 L79.783922,30.1967598 C86.5649279,30.1970112 91.7972086,35.6575978 91.7972086,42.2268436 Z" id="Shape" fill="#FFFFFF"></path>
                <rect id="Rectangle-path" fill="#36C9A3" x="61.7895673" y="2.28444134" width="3.91210916" height="12.0874022"></rect>
                <rect id="Rectangle-path" fill="#36C9A3" transform="translate(72.862166, 13.049360) rotate(-135.000000) translate(-72.862166, -13.049360) " x="70.9061297" y="8.78030866" width="3.91207164" height="8.53810248"></rect>
                <rect id="Rectangle-path" fill="#36C9A3" transform="translate(54.887974, 13.051022) rotate(-135.000000) translate(-54.887974, -13.051022) " x="50.6509157" y="11.0802173" width="8.47411756" height="3.94161024"></rect>
            </g>
        </g>
    </g>
</svg>